<svg width="3005" height="2106" viewBox="0 0 3005 2106" fill="none" xmlns="http://www.w3.org/2000/svg">
<path d="M3004.04 1827.69C3004.04 1855.3 2981.65 1877.69 2954.04 1877.69L356.301 1877.19C329.63 1877.19 360.91 1839.86 386.59 1832.65C391.423 1831.3 395.677 1828.39 398.702 1824.39L918.357 1136.39C932.398 1117.8 957.417 1111.37 978.681 1120.89L2170.04 1654.09L1498.04 1240.99L1046.39 904.255C1035.91 896.439 1028.91 884.828 1026.88 871.909L995.985 674.691C991.564 646.472 1011.64 620.29 1040.04 617.238L2079.66 505.532L1272.54 534.875C1268.22 535.032 1263.91 534.629 1259.69 533.676L1138.89 506.357C1136.46 505.808 1134 505.441 1131.51 505.259L921.979 489.909C898.635 488.199 879.601 470.523 876.171 447.369L871.35 414.819C871.001 412.463 870.484 410.136 869.804 407.854L847.404 332.758C835.486 292.801 782.773 284.128 758.681 318.16L677.145 433.339C654.672 465.085 606.15 460.143 590.539 424.517L545.074 320.759C536.163 300.423 541.73 276.645 558.743 262.379L856.888 12.3744C865.891 4.82497 877.266 0.687242 889.015 0.687242H2954.04C2981.65 0.687242 3004.04 23.073 3004.04 50.6873V1827.69Z" fill="#0D2577"/>
<path d="M0 50C0 22.3858 22.3858 0 50 0L824 0.250186L482 263L736 1054.5L692 1232.78L279.716 1876.5L50 1877C22.3858 1877 0 1854.61 0 1827V50Z" fill="#1E1E1E"/>
<path d="M2722.88 143.224C2728.11 145.884 2734.41 144.826 2740.03 144.826H2771.7C2766.48 142.165 2760.17 143.224 2754.55 143.224H2722.88Z" fill="#3B4E91"/>
<path d="M2722.88 144.826V449.117C2725.22 442.367 2724.2 433.959 2724.2 426.696V170.45C2724.2 162.314 2725.49 152.384 2722.88 144.826Z" fill="#C3C9DD"/>
<path d="M2724.2 144.826C2729.43 147.486 2735.73 146.427 2741.35 146.427H2771.7C2766.48 143.767 2760.17 144.826 2754.55 144.826H2724.2Z" fill="#F0F1F7"/>
<path d="M2771.7 144.826V409.079C2774.04 402.329 2773.02 393.922 2773.02 386.658V165.646C2773.02 158.823 2773.89 151.165 2771.7 144.826Z" fill="#6877AA"/>
<path d="M2724.2 146.427V449.117H2828.44V409.079L2771.7 409.079V146.427H2724.2Z" fill="white"/>
<path d="M2773.02 407.478C2778.59 410.311 2785.5 409.079 2791.49 409.079H2829.76C2824.19 406.246 2817.28 407.478 2811.29 407.478H2773.02Z" fill="#425594"/>
<path d="M2828.44 449.117V409.079C2831.62 418.288 2831.62 439.909 2828.44 449.117Z" fill="#959FC3"/>
<path d="M2722.88 449.117C2732.01 453.767 2746 450.719 2755.87 450.719H2828.44C2819.31 446.07 2805.32 449.118 2795.45 449.118L2722.88 449.117Z" fill="#95A0C3"/>
<path d="M2767.74 569.233C2769.39 570.33 2769.79 570.432 2771.7 570.834C2770.05 569.737 2769.66 569.635 2767.74 569.233Z" fill="#30458A"/>
<path d="M2772.59 569.766C2771.99 570.479 2773.39 570.389 2773.46 570.301C2774.05 569.588 2772.65 569.678 2772.59 569.766Z" fill="#6170A5"/>
<path d="M2774.34 569.233C2775.99 570.33 2776.39 570.432 2778.3 570.834C2776.65 569.737 2776.25 569.635 2774.34 569.233Z" fill="#8390B9"/>
<path d="M2778.3 569.233C2783.52 571.893 2789.83 570.834 2795.45 570.834C2790.23 568.174 2783.92 569.233 2778.3 569.233Z" fill="#C3C9DD"/>
<path d="M2795.45 569.233C2797.1 570.33 2797.5 570.432 2799.41 570.834C2797.76 569.737 2797.37 569.635 2795.45 569.233Z" fill="#99A3C6"/>
<path d="M2800.29 569.766C2799.7 570.477 2801.1 570.391 2801.17 570.301C2801.76 569.588 2800.36 569.678 2800.29 569.766Z" fill="#6574A8"/>
<path d="M2802.05 569.233C2803.7 570.33 2804.09 570.432 2806.01 570.834C2804.36 569.737 2803.96 569.635 2802.05 569.233Z" fill="#3F5292"/>
<path d="M2764.67 571.368C2764.07 572.08 2765.47 571.992 2765.54 571.903C2766.13 571.19 2764.73 571.28 2764.67 571.368Z" fill="#8B96BE"/>
<path d="M2767.31 571.368C2766.71 572.079 2768.11 571.991 2768.18 571.903C2768.77 571.19 2767.37 571.28 2767.31 571.368Z" fill="#C3C9DD"/>
<path d="M2766.42 772.628H2716.28C2716.28 804.566 2715.06 841.01 2737.4 863.389C2746.5 872.505 2759.01 875.189 2770.38 877.162C2803.98 882.988 2846.05 873.467 2856.91 828.682C2865.86 791.709 2864.9 740.521 2835.04 718.503C2814.73 703.535 2778.17 699.673 2769.68 668.528C2766.42 656.594 2766.42 639.603 2771.82 628.514C2777.92 615.991 2792.68 612.361 2801.6 622.715C2812.67 635.567 2809.97 659.848 2809.97 676.536H2857.47C2857.47 647.708 2862.27 612.255 2842.83 590.535C2828.12 574.092 2808.03 570.834 2788.85 570.834C2760.45 570.834 2729.58 576.907 2721.24 615.677C2718.66 627.708 2718.92 640.197 2718.92 652.513C2718.92 683.384 2722.79 710.684 2745.31 729.34C2766.42 746.829 2800.43 750.101 2808.59 783.839C2811.8 797.12 2810.74 816.707 2804.67 828.675C2798.51 840.844 2785.4 845.796 2775.94 835.796C2762.79 821.907 2766.42 791.4 2766.42 772.628Z" fill="white"/>
<path d="M2804.25 571.368C2803.66 572.079 2805.06 571.992 2805.12 571.903C2805.72 571.19 2804.32 571.28 2804.25 571.368Z" fill="#D8DBE9"/>
<path d="M2806.01 570.834C2807.66 571.931 2808.05 572.034 2809.97 572.436C2808.32 571.339 2807.92 571.236 2806.01 570.834Z" fill="#A9B1CE"/>
<path d="M2810.85 571.368C2810.26 572.079 2811.66 571.992 2811.72 571.903C2812.32 571.19 2810.92 571.28 2810.85 571.368Z" fill="#30448A"/>
<path d="M2759.39 572.969C2758.8 573.68 2760.2 573.594 2760.26 573.504C2760.85 572.791 2759.46 572.881 2759.39 572.969Z" fill="#CCD1E2"/>
<path d="M2813.49 572.969C2812.9 573.68 2814.29 573.594 2814.36 573.504C2814.95 572.791 2813.56 572.881 2813.49 572.969Z" fill="#B6BDD5"/>
<path d="M2784.9 615.677C2787.23 616.925 2788.91 617.138 2791.49 617.279C2789.16 616.031 2787.48 615.818 2784.9 615.677Z" fill="#E5E8F1"/>
<path d="M2782.26 617.279C2783.91 618.376 2784.3 618.478 2786.22 618.88C2784.57 617.783 2784.17 617.681 2782.26 617.279Z" fill="#425495"/>
<path d="M2793.7 617.812C2793.1 618.523 2794.5 618.435 2794.57 618.347C2795.16 617.634 2793.76 617.724 2793.7 617.812Z" fill="#707DAE"/>
<path d="M2856.58 618.347C2856.52 618.437 2856.44 620.125 2857.03 619.414C2857.1 619.326 2857.18 617.634 2856.58 618.347Z" fill="#6877AA"/>
<path d="M2856.58 621.55C2856.52 621.638 2856.44 623.33 2857.03 622.617C2857.1 622.529 2857.18 620.837 2856.58 621.55Z" fill="#CACFE1"/>
<path d="M2719.36 623.152C2719.29 623.241 2719.21 624.929 2719.81 624.218C2719.87 624.13 2719.95 622.439 2719.36 623.152Z" fill="#99A3C6"/>
<path d="M2857.47 623.685V628.49C2858.39 626.001 2858.39 626.174 2857.47 623.685Z" fill="#384B8F"/>
<path d="M2719.36 626.355C2719.29 626.444 2719.21 628.132 2719.81 627.421C2719.87 627.333 2719.95 625.642 2719.36 626.355Z" fill="#D7DBE9"/>
<path d="M2857.47 628.49V633.294C2858.39 630.805 2858.39 630.978 2857.47 628.49Z" fill="#808DB8"/>
<path d="M2718.04 632.761C2717.97 632.849 2717.89 634.539 2718.49 633.828C2718.55 633.739 2718.63 632.048 2718.04 632.761Z" fill="#6676A9"/>
<path d="M2857.47 633.294L2857.47 676.536C2860.82 666.839 2860.82 642.992 2857.47 633.294Z" fill="#C3C9DD"/>
<path d="M2718.04 635.964C2717.97 636.052 2717.89 637.742 2718.49 637.031C2718.55 636.943 2718.63 635.251 2718.04 635.964Z" fill="#8D99BF"/>
<path d="M2807.76 637.566C2807.7 637.655 2807.62 639.343 2808.21 638.632C2808.28 638.544 2808.36 636.853 2807.76 637.566Z" fill="#8E9AC0"/>
<path d="M2717.6 638.099V646.107C2718.7 642.855 2718.7 641.35 2717.6 638.099Z" fill="#C1C7DC"/>
<path d="M2767.74 639.7V644.505C2768.67 642.018 2768.67 642.189 2767.74 639.7Z" fill="#B2B9D3"/>
<path d="M2807.76 640.769C2807.7 640.858 2807.62 642.546 2808.21 641.835C2808.28 641.747 2808.36 640.056 2807.76 640.769Z" fill="#51629D"/>
<path d="M2807.76 643.972C2807.7 644.061 2807.62 645.749 2808.21 645.038C2808.28 644.95 2808.36 643.259 2807.76 643.972Z" fill="#2C4088"/>
<path d="M2808.65 642.904V650.911C2809.74 647.66 2809.74 646.155 2808.65 642.904Z" fill="#DFE2ED"/>
<path d="M2716.28 644.505V665.325C2718.38 659.254 2718.38 650.577 2716.28 644.505Z" fill="#33478C"/>
<path d="M2767.74 644.505V658.919C2769.41 654.124 2769.41 649.3 2767.74 644.505Z" fill="#7481B0"/>
<path d="M2717.6 646.107V665.325C2719.6 659.553 2719.6 651.878 2717.6 646.107Z" fill="#DDE0EB"/>
<path d="M2808.65 650.911V678.137C2811.13 670.951 2811.13 658.096 2808.65 650.911Z" fill="#A8B1CE"/>
<path d="M2767.74 658.919V663.724C2768.67 661.235 2768.67 661.408 2767.74 658.919Z" fill="#BBC1D9"/>
<path d="M2717.6 665.325V670.13C2718.53 667.641 2718.53 667.814 2717.6 665.325Z" fill="#A0A9CA"/>
<path d="M2718.04 671.198C2717.97 671.286 2717.89 672.976 2718.49 672.265C2718.55 672.177 2718.63 670.485 2718.04 671.198Z" fill="#6170A5"/>
<path d="M2717.6 673.333V678.137C2718.53 675.649 2718.53 675.822 2717.6 673.333Z" fill="#2E4389"/>
<path d="M2809.97 676.536C2815.19 679.196 2821.5 678.138 2827.12 678.138H2858.79C2853.56 675.477 2847.25 676.536 2841.63 676.536L2809.97 676.536Z" fill="#B3BBD4"/>
<path d="M2718.92 678.137V682.942C2719.85 680.453 2719.85 680.626 2718.92 678.137Z" fill="#ABB3CF"/>
<path d="M2857.9 754.478C2857.84 754.566 2857.76 756.257 2858.35 755.544C2858.42 755.456 2858.5 753.765 2857.9 754.478Z" fill="#D1D6E5"/>
<path d="M2859.22 757.681C2859.16 757.769 2859.08 759.46 2859.67 758.748C2859.74 758.66 2859.82 756.968 2859.22 757.681Z" fill="#6C7BAC"/>
<path d="M2859.22 760.884C2859.16 760.972 2859.08 762.662 2859.67 761.951C2859.74 761.862 2859.82 760.171 2859.22 760.884Z" fill="#C6CBDF"/>
<path d="M2860.11 764.62V769.425C2861.03 766.936 2861.03 767.109 2860.11 764.62Z" fill="#445796"/>
<path d="M2714.96 769.425C2720.19 772.085 2726.5 771.026 2732.12 771.026H2766.42C2761.2 768.366 2754.89 769.425 2749.27 769.425H2714.96Z" fill="#596AA1"/>
<path d="M2860.54 770.493C2860.48 770.581 2860.4 772.271 2860.99 771.56C2861.06 771.472 2861.14 769.781 2860.54 770.493Z" fill="#8A96BE"/>
<path d="M2714.96 771.026V796.651C2717.35 789.734 2717.35 777.943 2714.96 771.026Z" fill="#A8B1CE"/>
<path d="M2716.28 771.026C2721.51 773.687 2727.82 772.628 2733.44 772.628L2766.42 772.628C2761.2 769.968 2754.89 771.026 2749.27 771.026H2716.28Z" fill="#F4F5F8"/>
<path d="M2766.42 771.026L2766.42 803.057C2769.18 795.093 2769.18 778.991 2766.42 771.026Z" fill="#6877AA"/>
<path d="M2860.11 772.628V777.433C2861.03 774.944 2861.03 775.117 2860.11 772.628Z" fill="#BCC2D9"/>
<path d="M2807.76 781.704C2807.7 781.794 2807.62 783.482 2808.21 782.771C2808.28 782.683 2808.36 780.991 2807.76 781.704Z" fill="#8693BB"/>
<path d="M2807.76 784.907C2807.7 784.997 2807.62 786.685 2808.21 785.974C2808.28 785.886 2808.36 784.194 2807.76 784.907Z" fill="#425594"/>
<path d="M2808.65 785.44V791.846C2809.59 789.028 2809.59 788.259 2808.65 785.44Z" fill="#EAECF3"/>
<path d="M2808.65 791.846V804.659C2810.18 800.222 2810.18 796.283 2808.65 791.846Z" fill="#A8B1CE"/>
<path d="M2715.4 797.719C2715.33 797.807 2715.25 799.499 2715.85 798.786C2715.91 798.698 2715.99 797.007 2715.4 797.719Z" fill="#818CB8"/>
<path d="M2715.4 800.922C2715.33 801.01 2715.25 802.702 2715.85 801.989C2715.91 801.901 2715.99 800.21 2715.4 800.922Z" fill="#5C6DA3"/>
<path d="M2860.11 801.456V806.26C2861.03 803.771 2861.03 803.944 2860.11 801.456Z" fill="#CBD0E2"/>
<path d="M2714.96 803.057V811.065C2716.06 807.814 2716.06 806.308 2714.96 803.057Z" fill="#2C4088"/>
<path d="M2766.86 804.125C2766.79 804.215 2766.71 805.903 2767.31 805.192C2767.37 805.104 2767.45 803.413 2766.86 804.125Z" fill="#A3ACCC"/>
<path d="M2808.65 804.659V812.666C2809.74 809.414 2809.74 807.911 2808.65 804.659Z" fill="#E5E7F0"/>
<path d="M2716.28 806.26V811.065C2717.21 808.576 2717.21 808.749 2716.28 806.26Z" fill="#E1E4EE"/>
<path d="M2766.86 807.328C2766.79 807.418 2766.71 809.106 2767.31 808.395C2767.37 808.307 2767.45 806.616 2766.86 807.328Z" fill="#C9CFE2"/>
<path d="M2860.54 807.328C2860.48 807.418 2860.4 809.106 2860.99 808.395C2861.06 808.307 2861.14 806.616 2860.54 807.328Z" fill="#7C8AB6"/>
<path d="M2860.11 809.463V814.268C2861.03 811.779 2861.03 811.952 2860.11 809.463Z" fill="#485A98"/>
<path d="M2716.28 811.065V815.87C2717.21 813.381 2717.21 813.554 2716.28 811.065Z" fill="#B3BBD4"/>
<path d="M2807.33 811.065V815.87C2808.25 813.381 2808.25 813.554 2807.33 811.065Z" fill="#384B8F"/>
<path d="M2767.74 812.666V817.471C2768.67 814.982 2768.67 815.155 2767.74 812.666Z" fill="#4D5F9B"/>
<path d="M2716.28 815.87V820.674C2717.21 818.185 2717.21 818.358 2716.28 815.87Z" fill="#4C5E9A"/>
<path d="M2807.76 816.938C2807.7 817.027 2807.62 818.716 2808.21 818.004C2808.28 817.916 2808.36 816.225 2807.76 816.938Z" fill="#959FC3"/>
<path d="M2768.18 818.539C2768.11 818.629 2768.03 820.317 2768.63 819.606C2768.69 819.518 2768.77 817.827 2768.18 818.539Z" fill="#CACFE1"/>
<path d="M2859.22 818.539C2859.16 818.627 2859.08 820.319 2859.67 819.606C2859.74 819.518 2859.82 817.827 2859.22 818.539Z" fill="#6D7CAD"/>
<path d="M2718.04 821.742C2717.97 821.831 2717.89 823.52 2718.49 822.809C2718.55 822.721 2718.63 821.03 2718.04 821.742Z" fill="#A0A9C9"/>
<path d="M2857.9 823.344C2857.84 823.432 2857.76 825.123 2858.35 824.411C2858.42 824.323 2858.5 822.631 2857.9 823.344Z" fill="#A1A9C9"/>
<path d="M2718.04 824.945C2717.97 825.034 2717.89 826.723 2718.49 826.012C2718.55 825.924 2718.63 824.233 2718.04 824.945Z" fill="#3D5092"/>
<path d="M2857.9 826.547C2857.84 826.635 2857.76 828.326 2858.35 827.614C2858.42 827.525 2858.5 825.834 2857.9 826.547Z" fill="#394C90"/>
<path d="M2783.14 840.426C2782.55 841.137 2783.95 841.049 2784.01 840.961C2784.61 840.248 2783.21 840.338 2783.14 840.426Z" fill="#9FA9C9"/>
<path d="M2784.9 839.893C2787.23 841.14 2788.91 841.353 2791.49 841.494C2789.16 840.246 2787.48 840.033 2784.9 839.893Z" fill="#7785B2"/>
<path d="M2792.38 840.426C2791.78 841.137 2793.18 841.049 2793.25 840.961C2793.84 840.248 2792.44 840.338 2792.38 840.426Z" fill="#D3D7E6"/>
<path d="M2756.75 874.058C2756.16 874.769 2757.56 874.681 2757.62 874.593C2758.22 873.88 2756.82 873.97 2756.75 874.058Z" fill="#E0E3ED"/>
<path d="M2816.13 874.058C2815.53 874.769 2816.93 874.681 2817 874.593C2817.59 873.88 2816.19 873.97 2816.13 874.058Z" fill="#ABB3D0"/>
<path d="M2762.03 875.66C2761.44 876.371 2762.83 876.284 2762.9 876.194C2763.49 875.482 2762.1 875.572 2762.03 875.66Z" fill="#D7DCE9"/>
<path d="M2810.85 875.66C2810.26 876.371 2811.66 876.283 2811.72 876.194C2812.32 875.482 2810.92 875.572 2810.85 875.66Z" fill="#AFB8D3"/>
<path d="M2764.67 877.261C2764.07 877.974 2765.47 877.886 2765.54 877.796C2766.13 877.083 2764.73 877.173 2764.67 877.261Z" fill="#50629D"/>
<path d="M2767.31 877.261C2766.71 877.972 2768.11 877.884 2768.18 877.796C2768.77 877.083 2767.37 877.173 2767.31 877.261Z" fill="#919CC1"/>
<path d="M2769.06 876.728C2770.71 877.825 2771.11 877.927 2773.02 878.329C2771.37 877.232 2770.98 877.13 2769.06 876.728ZM2800.73 876.728C2802.38 877.825 2802.78 877.927 2804.69 878.329C2803.04 877.232 2802.64 877.13 2800.73 876.728Z" fill="#C6CCDF"/>
<path d="M2805.57 877.261C2804.98 877.972 2806.38 877.884 2806.44 877.796C2807.04 877.083 2805.64 877.173 2805.57 877.261Z" fill="#6877AA"/>
<path d="M2808.21 877.261C2807.62 877.972 2809.02 877.884 2809.08 877.796C2809.68 877.083 2808.28 877.173 2808.21 877.261Z" fill="#30458B"/>
<path d="M2772.59 878.863C2771.99 879.576 2773.39 879.486 2773.46 879.398C2774.05 878.685 2772.65 878.775 2772.59 878.863Z" fill="#384B8F"/>
<path d="M2774.34 878.329C2776.68 879.577 2778.35 879.79 2780.94 879.931C2778.6 878.683 2776.93 878.47 2774.34 878.329Z" fill="#6A79AC"/>
<path d="M2780.94 878.33C2784.75 880.272 2788.68 879.928 2792.81 879.931C2789 877.988 2785.07 878.333 2780.94 878.33Z" fill="#959FC3"/>
<path d="M2792.81 878.329C2794.46 879.427 2794.86 879.529 2796.77 879.931C2795.12 878.834 2794.73 878.731 2792.81 878.329Z" fill="#6D7CAD"/>
<path d="M2796.77 878.329C2798.42 879.427 2798.82 879.529 2800.73 879.931C2799.08 878.834 2798.68 878.731 2796.77 878.329Z" fill="#465897"/>
<path d="M2722.88 996.843V1302.74C2725.77 1294.38 2724.2 1282.91 2724.2 1273.91V998.445H2819.2C2810.71 994.119 2798.03 996.843 2788.85 996.843H2722.88Z" fill="#C3C9DD"/>
<path d="M2820.09 997.376C2819.49 998.088 2820.89 997.999 2820.96 997.911C2821.55 997.199 2820.15 997.288 2820.09 997.376Z" fill="#A2ABCB"/>
<path d="M2822.73 997.376C2822.13 998.089 2823.53 997.999 2823.6 997.911C2824.19 997.199 2822.79 997.288 2822.73 997.376Z" fill="#7F8BB7"/>
<path d="M2825.36 997.376C2824.77 998.088 2826.17 997.999 2826.24 997.911C2826.83 997.199 2825.43 997.288 2825.36 997.376Z" fill="#4E5F9B"/>
<path d="M2724.2 998.445V1301.13H2773.02V1171.41C2779.84 1171.41 2788.33 1169.71 2793.99 1175.31C2802.49 1183.69 2804.12 1200.95 2806.46 1213.05C2812.01 1241.97 2818.75 1271.66 2821.84 1301.13H2875.94C2874.83 1287.57 2870.5 1274.17 2867.44 1261.1C2863.21 1243.03 2859.26 1224.78 2855.2 1206.64C2849.97 1183.3 2844.87 1162.51 2823.16 1157C2835.52 1151.91 2846.86 1149.53 2855.45 1136.17C2868.06 1116.54 2865.38 1089.06 2865.38 1065.71C2865.38 1054.05 2866.15 1041.77 2863.25 1030.48C2860.94 1021.51 2855.94 1013.44 2849.55 1008.22C2835.6 996.837 2819.36 998.445 2803.37 998.445L2724.2 998.445Z" fill="white"/>
<path d="M2829.76 998.445C2831.41 999.542 2831.8 999.644 2833.72 1000.05C2832.07 998.949 2831.67 998.847 2829.76 998.445Z" fill="#8C97BE"/>
<path d="M2773.02 1028.87V1129.77C2775.5 1122.61 2774.34 1113.45 2774.34 1105.75V1056.1C2774.34 1047.53 2775.78 1036.83 2773.02 1028.87Z" fill="#F0F1F7"/>
<path d="M2774.34 1028.87C2781.87 1032.71 2792.59 1030.48 2800.73 1030.48C2793.2 1026.63 2782.48 1028.87 2774.34 1028.87Z" fill="#A0AACA"/>
<path d="M2801.61 1029.41C2801.02 1030.12 2802.42 1030.03 2802.48 1029.94C2803.08 1029.23 2801.68 1029.32 2801.61 1029.41Z" fill="#E2E5EE"/>
<path d="M2774.34 1030.48V1129.77C2777.1 1121.81 2775.66 1111.11 2775.66 1102.54V1054.5C2775.66 1046.8 2776.82 1037.63 2774.34 1030.48Z" fill="#51639D"/>
<path d="M2775.66 1030.48V1128.17C2785.04 1128.17 2802.13 1132.17 2809.69 1124.27C2815.05 1118.66 2816.38 1109.08 2816.55 1100.94C2816.87 1085.06 2817.16 1068.77 2816.51 1052.9C2816.23 1045.93 2814.53 1038.98 2809.82 1034.5C2801.65 1026.72 2785.46 1030.48 2775.66 1030.48Z" fill="#0D2577"/>
<path d="M2864.5 1034.75C2864.43 1034.84 2864.36 1036.52 2864.95 1035.81C2865.02 1035.73 2865.09 1034.03 2864.5 1034.75Z" fill="#8692BB"/>
<path d="M2864.5 1037.95C2864.43 1038.04 2864.36 1039.73 2864.95 1039.02C2865.02 1038.93 2865.09 1037.24 2864.5 1037.95Z" fill="#CACFE2"/>
<path d="M2865.38 1040.08V1100.94C2867.28 1095.44 2866.7 1089.25 2866.7 1083.33C2866.7 1070.5 2869.47 1051.93 2865.38 1040.08Z" fill="#51639E"/>
<path d="M2816.56 1046.49V1051.3C2817.49 1048.81 2817.49 1048.98 2816.56 1046.49Z" fill="#E1E3EE"/>
<path d="M2816.56 1051.3V1100.94C2818.32 1095.87 2817.88 1090.4 2817.88 1084.93C2817.88 1074.65 2819.86 1060.83 2816.56 1051.3Z" fill="#8692BB"/>
<path d="M2816.56 1100.94V1105.75C2817.49 1103.26 2817.49 1103.43 2816.56 1100.94Z" fill="#A6AFCD"/>
<path d="M2864.06 1104.15V1108.95C2864.99 1106.46 2864.99 1106.63 2864.06 1104.15Z" fill="#D3D7E6"/>
<path d="M2815.68 1110.02C2815.61 1110.11 2815.53 1111.8 2816.13 1111.09C2816.2 1111 2816.27 1109.31 2815.68 1110.02Z" fill="#7784B2"/>
<path d="M2864.5 1110.02C2864.43 1110.11 2864.36 1111.8 2864.95 1111.09C2865.02 1111 2865.09 1109.31 2864.5 1110.02Z" fill="#7B88B4"/>
<path d="M2775.66 1128.17C2783.19 1132.01 2793.91 1129.77 2802.05 1129.77C2794.52 1125.93 2783.8 1128.17 2775.66 1128.17Z" fill="#1D3380"/>
<path d="M2804.25 1128.7C2803.66 1129.41 2805.06 1129.33 2805.12 1129.24C2805.72 1128.52 2804.32 1128.61 2804.25 1128.7Z" fill="#E1E4EE"/>
<path d="M2774.34 1129.77C2781.23 1133.28 2790.66 1131.37 2798.09 1131.37C2791.2 1127.86 2781.77 1129.77 2774.34 1129.77Z" fill="#BBC1D9"/>
<path d="M2798.98 1130.3C2798.38 1131.02 2799.78 1130.93 2799.85 1130.84C2800.44 1130.13 2799.04 1130.22 2798.98 1130.3Z" fill="#E3E6F0"/>
<path d="M2825.36 1155.93C2824.77 1156.64 2826.17 1156.55 2826.24 1156.46C2826.83 1155.75 2825.43 1155.84 2825.36 1155.93Z" fill="#52639D"/>
<path d="M2773.02 1171.41V1301.13C2776.32 1291.6 2774.34 1277.78 2774.34 1267.5V1201.84C2774.34 1192.41 2776.04 1180.16 2773.02 1171.41Z" fill="#F0F1F7"/>
<path d="M2774.34 1171.41C2779.57 1174.07 2785.87 1173.01 2791.49 1173.01C2786.27 1170.35 2779.96 1171.41 2774.34 1171.41Z" fill="#6473A8"/>
<path d="M2774.34 1173.01V1302.74C2777.36 1293.99 2775.66 1281.74 2775.66 1272.31V1206.64C2775.66 1196.36 2777.64 1182.54 2774.34 1173.01Z" fill="#51639D"/>
<path d="M2801.17 1191.7C2801.1 1191.79 2801.02 1193.48 2801.61 1192.76C2801.68 1192.67 2801.76 1190.99 2801.17 1191.7Z" fill="#2A3F87"/>
<path d="M2803.8 1199.7C2803.74 1199.79 2803.66 1201.48 2804.25 1200.77C2804.32 1200.68 2804.4 1198.99 2803.8 1199.7Z" fill="#9CA5C7"/>
<path d="M2803.8 1202.91C2803.74 1203 2803.66 1204.69 2804.25 1203.97C2804.32 1203.88 2804.4 1202.2 2803.8 1202.91Z" fill="#34488C"/>
<path d="M2804.69 1205.04V1209.85C2805.61 1207.36 2805.61 1207.53 2804.69 1205.04Z" fill="#A4ADCC"/>
<path d="M2855.26 1207.71C2855.2 1207.8 2855.12 1209.49 2855.71 1208.78C2855.78 1208.69 2855.86 1207 2855.26 1207.71Z" fill="#D3D7E6"/>
<path d="M2806.44 1217.32C2806.38 1217.41 2806.3 1219.1 2806.89 1218.39C2806.96 1218.3 2807.04 1216.61 2806.44 1217.32Z" fill="#405494"/>
<path d="M2807.33 1217.85V1222.66C2808.25 1220.17 2808.25 1220.34 2807.33 1217.85Z" fill="#D6D9E8"/>
<path d="M2859.22 1222.13C2859.16 1222.21 2859.08 1223.91 2859.67 1223.19C2859.74 1223.1 2859.82 1221.41 2859.22 1222.13Z" fill="#7986B4"/>
<path d="M2807.76 1223.73C2807.7 1223.82 2807.62 1225.51 2808.21 1224.79C2808.28 1224.7 2808.36 1223.02 2807.76 1223.73Z" fill="#51639D"/>
<path d="M2809.08 1226.93C2809.02 1227.02 2808.94 1228.71 2809.53 1228C2809.6 1227.91 2809.68 1226.22 2809.08 1226.93Z" fill="#D9DDE9"/>
<path d="M2809.08 1231.74C2809.02 1231.82 2808.94 1233.51 2809.53 1232.8C2809.6 1232.71 2809.68 1231.02 2809.08 1231.74Z" fill="#374B8F"/>
<path d="M2810.4 1234.94C2810.34 1235.03 2810.26 1236.72 2810.85 1236.01C2810.92 1235.92 2811 1234.23 2810.4 1234.94Z" fill="#B9C0D7"/>
<path d="M2810.4 1238.14C2810.34 1238.23 2810.26 1239.92 2810.85 1239.21C2810.92 1239.12 2811 1237.43 2810.4 1238.14Z" fill="#5566A0"/>
<path d="M2811.72 1242.95C2811.65 1243.03 2811.58 1244.73 2812.17 1244.01C2812.24 1243.92 2812.32 1242.23 2811.72 1242.95Z" fill="#AFB8D2"/>
<path d="M2813.04 1250.95C2812.97 1251.04 2812.9 1252.73 2813.49 1252.02C2813.56 1251.93 2813.64 1250.24 2813.04 1250.95Z" fill="#919CC1"/>
<path d="M2813.04 1254.16C2812.97 1254.25 2812.9 1255.94 2813.49 1255.22C2813.56 1255.14 2813.64 1253.44 2813.04 1254.16Z" fill="#33478C"/>
<path d="M2814.36 1257.36C2814.29 1257.45 2814.22 1259.14 2814.81 1258.43C2814.88 1258.34 2814.95 1256.65 2814.36 1257.36Z" fill="#A4ADCC"/>
<path d="M2814.36 1260.56C2814.29 1260.65 2814.22 1262.34 2814.81 1261.63C2814.88 1261.54 2814.95 1259.85 2814.36 1260.56Z" fill="#3C5092"/>
<path d="M2867.14 1260.56C2867.07 1260.65 2866.99 1262.34 2867.59 1261.63C2867.66 1261.54 2867.73 1259.85 2867.14 1260.56Z" fill="#DDE0EC"/>
<path d="M2815.68 1266.97C2815.61 1267.06 2815.53 1268.75 2816.13 1268.04C2816.2 1267.95 2816.27 1266.26 2815.68 1266.97Z" fill="#6877AA"/>
<path d="M2816.56 1272.31V1277.11C2817.49 1274.62 2817.49 1274.8 2816.56 1272.31Z" fill="#7683B2"/>
<path d="M2818.32 1282.98C2818.25 1283.07 2818.17 1284.76 2818.77 1284.05C2818.83 1283.96 2818.91 1282.27 2818.32 1282.98Z" fill="#35498D"/>
<path d="M2819.2 1285.12V1289.92C2820.13 1287.44 2820.13 1287.61 2819.2 1285.12Z" fill="#B1B8D2"/>
<path d="M2873.74 1289.39C2873.67 1289.48 2873.59 1291.17 2874.19 1290.46C2874.25 1290.37 2874.33 1288.68 2873.74 1289.39Z" fill="#DADEEB"/>
<path d="M2819.64 1290.99C2819.57 1291.08 2819.49 1292.77 2820.09 1292.06C2820.15 1291.97 2820.23 1290.28 2819.64 1290.99Z" fill="#35498D"/>
<path d="M2820.96 1297.4C2820.89 1297.49 2820.81 1299.18 2821.41 1298.47C2821.47 1298.38 2821.55 1296.69 2820.96 1297.4Z" fill="#384B8F"/>
<path d="M2876.38 1300.6C2876.31 1300.69 2876.23 1302.38 2876.83 1301.67C2876.89 1301.58 2876.97 1299.89 2876.38 1300.6Z" fill="#BBC2D9"/>
<path d="M2724.2 1301.13C2729.43 1303.79 2735.73 1302.74 2741.35 1302.74L2774.34 1302.74C2769.12 1300.08 2762.81 1301.14 2757.19 1301.14L2724.2 1301.13Z" fill="#E5E7F0"/>
<path d="M2823.16 1301.13C2828.73 1303.97 2835.64 1302.74 2841.63 1302.74H2875.94C2870.37 1299.9 2863.46 1301.13 2857.47 1301.13H2823.16Z" fill="#E5E7F0"/>
<path d="M2722.88 1302.74C2728.11 1305.4 2734.41 1304.34 2740.03 1304.34H2774.34C2769.12 1301.68 2762.81 1302.74 2757.19 1302.74H2722.88ZM2821.84 1302.74C2827.41 1305.57 2834.32 1304.34 2840.31 1304.34H2877.26C2871.69 1301.5 2864.78 1302.74 2858.79 1302.74H2821.84Z" fill="#192F7E"/>
<path d="M2711.01 1421.25C2716.23 1423.91 2722.54 1422.85 2728.16 1422.85H2762.46C2757.24 1420.19 2750.93 1421.25 2745.31 1421.25H2711.01ZM2813.92 1421.25C2819.15 1423.91 2825.46 1422.85 2831.08 1422.85H2862.75C2857.52 1420.19 2851.21 1421.25 2845.59 1421.25H2813.92Z" fill="#3B4E91"/>
<path d="M2711.01 1426.05C2726.71 1421.52 2745.05 1424.45 2761.15 1424.45C2751.06 1419.32 2735.11 1422.85 2724.2 1422.85C2719.56 1422.85 2714.21 1421.59 2711.01 1426.05Z" fill="#F0F1F7"/>
<path d="M2761.58 1423.92C2761.51 1424.01 2761.44 1425.7 2762.03 1424.99C2762.1 1424.9 2762.18 1423.21 2761.58 1423.92Z" fill="#B4BBD4"/>
<path d="M2813.04 1423.92C2812.97 1424.01 2812.9 1425.7 2813.49 1424.99C2813.56 1424.9 2813.64 1423.21 2813.04 1423.92Z" fill="#5969A2"/>
<path d="M2813.92 1422.85C2819.15 1425.51 2825.46 1424.45 2831.08 1424.45H2862.75C2857.52 1421.79 2851.21 1422.85 2845.59 1422.85H2813.92Z" fill="#F0F1F7"/>
<path d="M2712.32 1424.45C2712.42 1438.89 2715.44 1453.51 2717.5 1467.69C2720.2 1486.37 2722.31 1505.11 2725.18 1523.75C2732.1 1568.92 2736.81 1614.54 2743.06 1659.88C2746.12 1682.17 2750.44 1704.58 2751.91 1727.14H2821.84C2822.63 1704.79 2827.3 1681.82 2830.67 1659.88C2834.18 1637.03 2836.46 1613.87 2839.97 1591.01C2848.47 1535.69 2854.26 1479.76 2862.75 1424.45L2813.92 1424.45C2813.27 1443.19 2809.72 1461.92 2807.7 1480.51C2804.64 1508.82 2801.8 1537.11 2798.45 1565.39C2794.62 1597.67 2793.84 1631.32 2787.54 1663.08C2780.99 1636.46 2780.52 1605.78 2778.07 1578.2C2773.57 1527.22 2768.97 1474.82 2761.15 1424.45H2712.32Z" fill="white"/>
<path d="M2711.44 1427.12C2711.37 1427.21 2711.3 1428.9 2711.89 1428.19C2711.96 1428.1 2712.04 1426.41 2711.44 1427.12Z" fill="#939FC2"/>
<path d="M2761.58 1427.12C2761.51 1427.21 2761.44 1428.9 2762.03 1428.19C2762.1 1428.1 2762.18 1426.41 2761.58 1427.12Z" fill="#DFE2ED"/>
<path d="M2813.04 1427.12C2812.97 1427.21 2812.9 1428.9 2813.49 1428.19C2813.56 1428.1 2813.64 1426.41 2813.04 1427.12Z" fill="#949FC3"/>
<path d="M2861.86 1428.72C2861.8 1428.81 2861.72 1430.5 2862.31 1429.79C2862.38 1429.7 2862.46 1428.01 2861.86 1428.72Z" fill="#99A3C5"/>
<path d="M2711.44 1430.33C2711.37 1430.41 2711.3 1432.11 2711.89 1431.39C2711.96 1431.3 2712.04 1429.61 2711.44 1430.33Z" fill="#495A98"/>
<path d="M2762.9 1430.33C2762.83 1430.41 2762.76 1432.11 2763.35 1431.39C2763.42 1431.3 2763.49 1429.61 2762.9 1430.33Z" fill="#5767A0"/>
<path d="M2812.6 1429.26V1434.06C2813.53 1431.57 2813.53 1431.75 2812.6 1429.26Z" fill="#C4CBDE"/>
<path d="M2811.29 1430.86V1437.27C2812.22 1434.45 2812.22 1433.68 2811.29 1430.86Z" fill="#213782"/>
<path d="M2861.86 1431.93C2861.8 1432.02 2861.72 1433.71 2862.31 1432.99C2862.38 1432.91 2862.46 1431.21 2861.86 1431.93Z" fill="#5667A0"/>
<path d="M2762.9 1433.53C2762.83 1433.62 2762.76 1435.31 2763.35 1434.6C2763.42 1434.51 2763.49 1432.82 2762.9 1433.53Z" fill="#949EC4"/>
<path d="M2712.76 1436.73C2712.69 1436.82 2712.62 1438.51 2713.21 1437.8C2713.28 1437.71 2713.35 1436.02 2712.76 1436.73Z" fill="#AAB3CF"/>
<path d="M2762.9 1436.73C2762.83 1436.82 2762.76 1438.51 2763.35 1437.8C2763.42 1437.71 2763.49 1436.02 2762.9 1436.73Z" fill="#C6CCDF"/>
<path d="M2811.29 1437.27V1442.07C2812.21 1439.58 2812.21 1439.75 2811.29 1437.27Z" fill="#7583B2"/>
<path d="M2712.76 1439.94C2712.69 1440.02 2712.62 1441.71 2713.21 1441C2713.28 1440.91 2713.35 1439.22 2712.76 1439.94Z" fill="#6474A8"/>
<path d="M2860.54 1439.94C2860.48 1440.02 2860.4 1441.71 2860.99 1441C2861.06 1440.91 2861.14 1439.22 2860.54 1439.94Z" fill="#7381B0"/>
<path d="M2763.78 1440.47V1445.27C2764.71 1442.78 2764.71 1442.96 2763.78 1440.47Z" fill="#3F5193"/>
<path d="M2713.64 1442.07V1446.87C2714.57 1444.39 2714.57 1444.56 2713.64 1442.07Z" fill="#E0E2ED"/>
<path d="M2811.72 1443.14C2811.65 1443.23 2811.58 1444.92 2812.17 1444.2C2812.24 1444.12 2812.32 1442.43 2811.72 1443.14Z" fill="#C2C8DD"/>
<path d="M2860.54 1443.14C2860.48 1443.23 2860.4 1444.92 2860.99 1444.2C2861.06 1444.12 2861.14 1442.43 2860.54 1443.14Z" fill="#33488C"/>
<path d="M2809.97 1443.67V1448.48C2810.89 1445.99 2810.89 1446.16 2809.97 1443.67Z" fill="#32468C"/>
<path d="M2764.22 1446.34C2764.15 1446.43 2764.07 1448.12 2764.67 1447.41C2764.74 1447.32 2764.81 1445.63 2764.22 1446.34Z" fill="#97A1C4"/>
<path d="M2714.08 1447.94C2714.01 1448.03 2713.93 1449.72 2714.53 1449.01C2714.6 1448.92 2714.67 1447.23 2714.08 1447.94Z" fill="#7D89B6"/>
<path d="M2810.4 1449.54C2810.34 1449.63 2810.26 1451.32 2810.85 1450.61C2810.92 1450.52 2811 1448.83 2810.4 1449.54Z" fill="#6F7EAE"/>
<path d="M2859.22 1449.54C2859.16 1449.63 2859.08 1451.32 2859.67 1450.61C2859.74 1450.52 2859.82 1448.83 2859.22 1449.54Z" fill="#7D8AB6"/>
<path d="M2714.08 1451.15C2714.01 1451.23 2713.93 1452.93 2714.53 1452.21C2714.6 1452.12 2714.67 1450.43 2714.08 1451.15Z" fill="#3D5192"/>
<path d="M2810.4 1452.75C2810.34 1452.84 2810.26 1454.53 2810.85 1453.81C2810.92 1453.73 2811 1452.03 2810.4 1452.75Z" fill="#ACB4D0"/>
<path d="M2859.22 1452.75C2859.16 1452.84 2859.08 1454.53 2859.67 1453.81C2859.74 1453.73 2859.82 1452.03 2859.22 1452.75Z" fill="#435695"/>
<path d="M2765.1 1453.28V1458.09C2766.03 1455.6 2766.03 1455.77 2765.1 1453.28Z" fill="#4B5C99"/>
<path d="M2857.47 1453.28V1458.09C2858.39 1455.6 2858.39 1455.77 2857.47 1453.28Z" fill="#D1D6E5"/>
<path d="M2810.4 1455.95C2810.34 1456.04 2810.26 1457.73 2810.85 1457.02C2810.92 1456.93 2811 1455.24 2810.4 1455.95Z" fill="#D3D8E6"/>
<path d="M2715.4 1457.55C2715.33 1457.64 2715.25 1459.33 2715.85 1458.62C2715.91 1458.53 2715.99 1456.84 2715.4 1457.55Z" fill="#7987B4"/>
<path d="M2808.65 1456.48V1461.29C2809.57 1458.8 2809.57 1458.97 2808.65 1456.48Z" fill="#2F448A"/>
<path d="M2765.1 1458.09V1462.89C2766.03 1460.4 2766.03 1460.57 2765.1 1458.09Z" fill="#9BA4C7"/>
<path d="M2857.9 1459.15C2857.84 1459.24 2857.76 1460.93 2858.35 1460.22C2858.42 1460.13 2858.5 1458.44 2857.9 1459.15Z" fill="#7381B0"/>
<path d="M2714.96 1459.69V1464.49C2715.89 1462 2715.89 1462.18 2714.96 1459.69Z" fill="#34488D"/>
<path d="M2809.08 1462.36C2809.02 1462.44 2808.94 1464.14 2809.53 1463.42C2809.6 1463.34 2809.68 1461.64 2809.08 1462.36Z" fill="#7482B1"/>
<path d="M2857.9 1462.36C2857.84 1462.44 2857.76 1464.14 2858.35 1463.42C2858.42 1463.34 2858.5 1461.64 2857.9 1462.36Z" fill="#3A4E90"/>
<path d="M2716.28 1462.89V1467.69C2717.21 1465.21 2717.21 1465.38 2716.28 1462.89Z" fill="#C6CCDF"/>
<path d="M2809.08 1465.56C2809.02 1465.65 2808.94 1467.34 2809.53 1466.63C2809.6 1466.54 2809.68 1464.85 2809.08 1465.56Z" fill="#BDC4D9"/>
<path d="M2856.15 1464.49V1469.3C2857.07 1466.81 2857.07 1466.98 2856.15 1464.49Z" fill="#C8CEE0"/>
<path d="M2766.42 1466.09V1470.9C2767.35 1468.41 2767.35 1468.58 2766.42 1466.09Z" fill="#455796"/>
<path d="M2716.72 1468.76C2716.65 1468.85 2716.57 1470.54 2717.17 1469.83C2717.23 1469.74 2717.31 1468.05 2716.72 1468.76Z" fill="#6272A7"/>
<path d="M2856.58 1470.36C2856.52 1470.45 2856.44 1472.14 2857.03 1471.43C2857.1 1471.34 2857.18 1469.65 2856.58 1470.36Z" fill="#6171A6"/>
<path d="M2716.72 1471.97C2716.65 1472.05 2716.57 1473.75 2717.17 1473.03C2717.23 1472.94 2717.31 1471.25 2716.72 1471.97Z" fill="#2E438A"/>
<path d="M2766.42 1470.9V1475.7C2767.35 1473.21 2767.35 1473.39 2766.42 1470.9Z" fill="#97A1C4"/>
<path d="M2807.33 1470.9V1475.7C2808.25 1473.21 2808.25 1473.39 2807.33 1470.9Z" fill="#54669F"/>
<path d="M2717.6 1472.5V1477.3C2718.53 1474.82 2718.53 1474.99 2717.6 1472.5Z" fill="#BEC5DA"/>
<path d="M2856.58 1473.57C2856.52 1473.66 2856.44 1475.35 2857.03 1474.63C2857.1 1474.55 2857.18 1472.85 2856.58 1473.57Z" fill="#31458B"/>
<path d="M2854.83 1474.1V1478.91C2855.75 1476.42 2855.75 1476.59 2854.83 1474.1Z" fill="#BBC1D9"/>
<path d="M2807.76 1476.77C2807.7 1476.86 2807.62 1478.55 2808.21 1477.84C2808.28 1477.75 2808.36 1476.06 2807.76 1476.77Z" fill="#A7B0CE"/>
<path d="M2718.04 1478.37C2717.97 1478.46 2717.89 1480.15 2718.49 1479.44C2718.55 1479.35 2718.63 1477.66 2718.04 1478.37Z" fill="#53659E"/>
<path d="M2768.18 1479.97C2768.11 1480.06 2768.03 1481.75 2768.63 1481.04C2768.69 1480.95 2768.77 1479.26 2768.18 1479.97Z" fill="#4A5B99"/>
<path d="M2855.26 1479.97C2855.2 1480.06 2855.12 1481.75 2855.71 1481.04C2855.78 1480.95 2855.86 1479.26 2855.26 1479.97Z" fill="#53649E"/>
<path d="M2718.92 1482.11V1486.91C2719.85 1484.42 2719.85 1484.6 2718.92 1482.11Z" fill="#C9CEE0"/>
<path d="M2767.74 1482.11V1486.91C2768.67 1484.42 2768.67 1484.6 2767.74 1482.11Z" fill="#8692BB"/>
<path d="M2806.01 1482.11V1486.91C2806.93 1484.42 2806.93 1484.6 2806.01 1482.11Z" fill="#4A5C99"/>
<path d="M2853.51 1483.71V1488.51C2854.43 1486.03 2854.43 1486.2 2853.51 1483.71Z" fill="#C9CFE1"/>
<path d="M2719.36 1487.98C2719.29 1488.07 2719.21 1489.76 2719.81 1489.05C2719.87 1488.96 2719.95 1487.27 2719.36 1487.98Z" fill="#5767A0"/>
<path d="M2768.18 1487.98C2768.11 1488.07 2768.03 1489.76 2768.63 1489.05C2768.69 1488.96 2768.77 1487.27 2768.18 1487.98Z" fill="#DADEEB"/>
<path d="M2806.01 1486.91V1491.72C2806.93 1489.23 2806.93 1489.4 2806.01 1486.91Z" fill="#A3ACCB"/>
<path d="M2853.94 1489.58C2853.88 1489.67 2853.8 1491.36 2854.39 1490.65C2854.46 1490.56 2854.54 1488.87 2853.94 1489.58Z" fill="#50629D"/>
<path d="M2720.68 1494.39C2720.61 1494.48 2720.53 1496.17 2721.13 1495.45C2721.19 1495.37 2721.27 1493.67 2720.68 1494.39Z" fill="#AAB3CF"/>
<path d="M2769.5 1494.39C2769.43 1494.48 2769.35 1496.17 2769.95 1495.45C2770.01 1495.37 2770.09 1493.67 2769.5 1494.39Z" fill="#707FAF"/>
<path d="M2852.62 1495.99C2852.56 1496.08 2852.48 1497.77 2853.07 1497.06C2853.14 1496.97 2853.22 1495.28 2852.62 1495.99Z" fill="#A2ACCB"/>
<path d="M2720.68 1497.59C2720.61 1497.68 2720.53 1499.37 2721.13 1498.66C2721.19 1498.57 2721.27 1496.88 2720.68 1497.59Z" fill="#6474A8"/>
<path d="M2769.5 1497.59C2769.43 1497.68 2769.35 1499.37 2769.95 1498.66C2770.01 1498.57 2770.09 1496.88 2769.5 1497.59Z" fill="#AFB8D2"/>
<path d="M2805.12 1497.59C2805.06 1497.68 2804.98 1499.37 2805.57 1498.66C2805.64 1498.57 2805.72 1496.88 2805.12 1497.59Z" fill="#6474A8"/>
<path d="M2852.62 1499.19C2852.56 1499.28 2852.48 1500.97 2853.07 1500.26C2853.14 1500.17 2853.22 1498.48 2852.62 1499.19Z" fill="#5868A1"/>
<path d="M2769.5 1500.79C2769.43 1500.88 2769.35 1502.57 2769.95 1501.86C2770.01 1501.77 2770.09 1500.08 2769.5 1500.79Z" fill="#DCDFEC"/>
<path d="M2770.38 1499.73V1506.13C2771.32 1503.31 2771.32 1502.54 2770.38 1499.73Z" fill="#213782"/>
<path d="M2804.69 1499.73V1504.53C2805.61 1502.04 2805.61 1502.21 2804.69 1499.73Z" fill="#A0AACA"/>
<path d="M2721.56 1504.53V1509.33C2722.49 1506.85 2722.49 1507.02 2721.56 1504.53Z" fill="#9BA5C6"/>
<path d="M2851.31 1505.6C2851.24 1505.69 2851.16 1507.38 2851.75 1506.67C2851.82 1506.58 2851.9 1504.89 2851.31 1505.6Z" fill="#A1AACA"/>
<path d="M2770.82 1507.2C2770.75 1507.29 2770.67 1508.98 2771.27 1508.27C2771.33 1508.18 2771.41 1506.49 2770.82 1507.2Z" fill="#717FAF"/>
<path d="M2803.8 1508.8C2803.74 1508.89 2803.66 1510.58 2804.25 1509.87C2804.32 1509.78 2804.4 1508.09 2803.8 1508.8Z" fill="#6070A6"/>
<path d="M2851.31 1508.8C2851.24 1508.89 2851.16 1510.58 2851.75 1509.87C2851.82 1509.78 2851.9 1508.09 2851.31 1508.8Z" fill="#51639D"/>
<path d="M2722 1510.4C2721.93 1510.49 2721.85 1512.18 2722.45 1511.47C2722.51 1511.38 2722.59 1509.69 2722 1510.4Z" fill="#2B3F87"/>
<path d="M2770.82 1510.4C2770.75 1510.49 2770.67 1512.18 2771.27 1511.47C2771.33 1511.38 2771.41 1509.69 2770.82 1510.4Z" fill="#A7B0CE"/>
<path d="M2803.37 1510.94V1515.74C2804.29 1513.25 2804.29 1513.42 2803.37 1510.94Z" fill="#9DA6C8"/>
<path d="M2770.82 1513.61C2770.75 1513.69 2770.67 1515.39 2771.27 1514.67C2771.33 1514.58 2771.41 1512.89 2770.82 1513.61Z" fill="#D0D4E4"/>
<path d="M2772.14 1513.61C2772.07 1513.69 2771.99 1515.39 2772.59 1514.67C2772.65 1514.58 2772.73 1512.89 2772.14 1513.61Z" fill="#2C4088"/>
<path d="M2723.32 1515.21C2723.25 1515.3 2723.17 1516.99 2723.77 1516.27C2723.83 1516.19 2723.91 1514.49 2723.32 1515.21Z" fill="#8C98BE"/>
<path d="M2772.14 1516.81C2772.07 1516.9 2771.99 1518.59 2772.59 1517.88C2772.65 1517.79 2772.73 1516.1 2772.14 1516.81Z" fill="#4B5D9A"/>
<path d="M2803.8 1516.81C2803.74 1516.9 2803.66 1518.59 2804.25 1517.88C2804.32 1517.79 2804.4 1516.1 2803.8 1516.81Z" fill="#E3E6EF"/>
<path d="M2849.99 1516.81C2849.92 1516.9 2849.84 1518.59 2850.44 1517.88C2850.5 1517.79 2850.58 1516.1 2849.99 1516.81Z" fill="#8692BB"/>
<path d="M2722.88 1517.34V1522.15C2723.81 1519.66 2723.81 1519.83 2722.88 1517.34Z" fill="#4D5F9B"/>
<path d="M2771.7 1518.94V1523.75C2772.63 1521.26 2772.63 1521.43 2771.7 1518.94Z" fill="#828EB9"/>
<path d="M2849.99 1520.01C2849.92 1520.1 2849.84 1521.79 2850.44 1521.08C2850.5 1520.99 2850.58 1519.3 2849.99 1520.01Z" fill="#495B98"/>
<path d="M2724.2 1520.55V1525.35C2725.12 1522.86 2725.12 1523.03 2724.2 1520.55Z" fill="#E3E5EF"/>
<path d="M2802.48 1521.61C2802.42 1521.7 2802.34 1523.39 2802.93 1522.68C2803 1522.59 2803.08 1520.9 2802.48 1521.61Z" fill="#5A6BA2"/>
<path d="M2848.23 1522.15V1526.95C2849.16 1524.46 2849.16 1524.64 2848.23 1522.15Z" fill="#D6DBE8"/>
<path d="M2771.7 1523.75V1528.55C2772.63 1526.06 2772.63 1526.24 2771.7 1523.75Z" fill="#CFD5E4"/>
<path d="M2802.48 1524.82C2802.42 1524.9 2802.34 1526.6 2802.93 1525.88C2803 1525.8 2803.08 1524.1 2802.48 1524.82Z" fill="#97A1C5"/>
<path d="M2724.64 1526.42C2724.57 1526.51 2724.49 1528.2 2725.08 1527.48C2725.15 1527.4 2725.23 1525.71 2724.64 1526.42Z" fill="#6B7AAB"/>
<path d="M2773.02 1526.95V1531.76C2773.95 1529.27 2773.95 1529.44 2773.02 1526.95Z" fill="#33478C"/>
<path d="M2802.48 1528.02C2802.42 1528.11 2802.34 1529.8 2802.93 1529.09C2803 1529 2803.08 1527.31 2802.48 1528.02Z" fill="#C8CDE0"/>
<path d="M2848.67 1528.02C2848.6 1528.11 2848.52 1529.8 2849.12 1529.09C2849.18 1529 2849.26 1527.31 2848.67 1528.02Z" fill="#5A6BA1"/>
<path d="M2724.64 1529.62C2724.57 1529.71 2724.49 1531.4 2725.08 1530.69C2725.15 1530.6 2725.23 1528.91 2724.64 1529.62Z" fill="#31468B"/>
<path d="M2800.73 1528.55V1533.36C2801.65 1530.87 2801.65 1531.04 2800.73 1528.55Z" fill="#35498D"/>
<path d="M2725.52 1530.15V1534.96C2726.44 1532.47 2726.44 1532.64 2725.52 1530.15Z" fill="#D3D8E7"/>
<path d="M2773.02 1531.76V1536.56C2773.95 1534.07 2773.95 1534.24 2773.02 1531.76Z" fill="#7B88B5"/>
<path d="M2847.35 1532.82C2847.28 1532.91 2847.2 1534.6 2847.8 1533.89C2847.86 1533.8 2847.94 1532.11 2847.35 1532.82Z" fill="#CCD1E2"/>
<path d="M2801.17 1534.43C2801.1 1534.51 2801.02 1536.21 2801.61 1535.49C2801.68 1535.4 2801.76 1533.71 2801.17 1534.43Z" fill="#7784B2"/>
<path d="M2725.96 1536.03C2725.89 1536.12 2725.81 1537.81 2726.4 1537.09C2726.47 1537.01 2726.55 1535.31 2725.96 1536.03Z" fill="#7482B1"/>
<path d="M2847.35 1536.03C2847.28 1536.12 2847.2 1537.81 2847.8 1537.09C2847.86 1537.01 2847.94 1535.31 2847.35 1536.03Z" fill="#8D97BF"/>
<path d="M2773.46 1537.63C2773.39 1537.72 2773.31 1539.41 2773.91 1538.7C2773.97 1538.61 2774.05 1536.92 2773.46 1537.63Z" fill="#C7CDE0"/>
<path d="M2801.17 1537.63C2801.1 1537.72 2801.02 1539.41 2801.61 1538.7C2801.68 1538.61 2801.76 1536.92 2801.17 1537.63Z" fill="#B3BBD5"/>
<path d="M2725.96 1539.23C2725.89 1539.32 2725.81 1541.01 2726.4 1540.3C2726.47 1540.21 2726.55 1538.52 2725.96 1539.23Z" fill="#374C8F"/>
<path d="M2847.35 1539.23C2847.28 1539.32 2847.2 1541.01 2847.8 1540.3C2847.86 1540.21 2847.94 1538.52 2847.35 1539.23Z" fill="#4B5D99"/>
<path d="M2774.34 1539.76V1544.57C2775.27 1542.08 2775.27 1542.25 2774.34 1539.76Z" fill="#445796"/>
<path d="M2801.17 1540.83C2801.1 1540.92 2801.02 1542.61 2801.61 1541.9C2801.68 1541.81 2801.76 1540.12 2801.17 1540.83Z" fill="#D7DBE9"/>
<path d="M2727.27 1542.43C2727.21 1542.52 2727.13 1544.21 2727.72 1543.5C2727.79 1543.41 2727.87 1541.72 2727.27 1542.43Z" fill="#AFB8D2"/>
<path d="M2799.41 1541.37V1546.17C2800.34 1543.68 2800.34 1543.85 2799.41 1541.37Z" fill="#33478C"/>
<path d="M2845.59 1541.37V1546.17C2846.52 1543.68 2846.52 1543.85 2845.59 1541.37Z" fill="#C3C9DD"/>
<path d="M2727.27 1545.64C2727.21 1545.72 2727.13 1547.42 2727.72 1546.7C2727.79 1546.62 2727.87 1544.93 2727.27 1545.64Z" fill="#6C7BAC"/>
<path d="M2774.34 1544.57V1549.37C2775.27 1546.88 2775.27 1547.06 2774.34 1544.57Z" fill="#8E98BF"/>
<path d="M2799.85 1547.24C2799.78 1547.33 2799.7 1549.02 2800.3 1548.3C2800.36 1548.22 2800.44 1546.53 2799.85 1547.24Z" fill="#7D89B5"/>
<path d="M2846.03 1547.24C2845.96 1547.33 2845.88 1549.02 2846.48 1548.3C2846.54 1548.22 2846.62 1546.53 2846.03 1547.24Z" fill="#5C6DA3"/>
<path d="M2799.85 1550.44C2799.78 1550.53 2799.7 1552.22 2800.3 1551.51C2800.36 1551.42 2800.44 1549.73 2799.85 1550.44Z" fill="#C4CADD"/>
<path d="M2728.16 1550.97V1555.78C2729.08 1553.29 2729.08 1553.46 2728.16 1550.97Z" fill="#BFC5DB"/>
<path d="M2775.66 1552.58V1557.38C2776.58 1554.89 2776.58 1555.06 2775.66 1552.58Z" fill="#384B8F"/>
<path d="M2844.27 1552.58V1557.38C2845.2 1554.89 2845.2 1555.06 2844.27 1552.58Z" fill="#B3BAD3"/>
<path d="M2798.09 1554.18V1558.98C2799.02 1556.49 2799.02 1556.67 2798.09 1554.18Z" fill="#435595"/>
<path d="M2728.59 1556.85C2728.53 1556.94 2728.45 1558.63 2729.04 1557.91C2729.11 1557.83 2729.19 1556.13 2728.59 1556.85Z" fill="#5E6EA4"/>
<path d="M2775.66 1557.38V1562.19C2776.58 1559.7 2776.58 1559.87 2775.66 1557.38Z" fill="#8691BB"/>
<path d="M2844.71 1558.45C2844.64 1558.54 2844.56 1560.23 2845.16 1559.52C2845.22 1559.43 2845.3 1557.74 2844.71 1558.45Z" fill="#2D4289"/>
<path d="M2798.09 1558.98V1563.79C2799.02 1561.3 2799.02 1561.47 2798.09 1558.98Z" fill="#8E99BF"/>
<path d="M2729.48 1562.19V1566.99C2730.4 1564.5 2730.4 1564.67 2729.48 1562.19Z" fill="#9BA5C6"/>
<path d="M2842.95 1562.19V1566.99C2843.88 1564.5 2843.88 1564.67 2842.95 1562.19Z" fill="#AAB2CF"/>
<path d="M2729.91 1568.06C2729.85 1568.15 2729.77 1569.84 2730.36 1569.12C2730.43 1569.04 2730.51 1567.35 2729.91 1568.06Z" fill="#2C4288"/>
<path d="M2777.42 1568.06C2777.35 1568.15 2777.27 1569.84 2777.86 1569.12C2777.93 1569.04 2778.01 1567.35 2777.42 1568.06Z" fill="#5869A2"/>
<path d="M2797.21 1568.06C2797.14 1568.15 2797.06 1569.84 2797.66 1569.12C2797.72 1569.04 2797.8 1567.35 2797.21 1568.06Z" fill="#50619D"/>
<path d="M2843.39 1568.06C2843.32 1568.15 2843.24 1569.84 2843.84 1569.12C2843.9 1569.04 2843.98 1567.35 2843.39 1568.06Z" fill="#3B4F90"/>
<path d="M2776.98 1570.19V1575C2777.9 1572.51 2777.9 1572.68 2776.98 1570.19Z" fill="#919CC1"/>
<path d="M2796.77 1570.19V1575C2797.7 1572.51 2797.7 1572.68 2796.77 1570.19Z" fill="#8D99BF"/>
<path d="M2731.23 1572.86C2731.17 1572.95 2731.09 1574.64 2731.68 1573.93C2731.75 1573.84 2731.83 1572.15 2731.23 1572.86Z" fill="#ADB5D0"/>
<path d="M2730.8 1575V1579.8C2731.72 1577.31 2731.72 1577.49 2730.8 1575Z" fill="#6877AA"/>
<path d="M2842.07 1576.07C2842 1576.15 2841.92 1577.85 2842.52 1577.13C2842.58 1577.04 2842.66 1575.35 2842.07 1576.07Z" fill="#5A6AA2"/>
<path d="M2732.12 1578.2V1583.01C2733.04 1580.52 2733.04 1580.69 2732.12 1578.2Z" fill="#E3E5EF"/>
<path d="M2778.73 1580.87C2778.67 1580.96 2778.59 1582.65 2779.18 1581.94C2779.25 1581.85 2779.33 1580.16 2778.73 1580.87Z" fill="#5F6EA5"/>
<path d="M2795.45 1581.4V1586.21C2796.38 1583.72 2796.38 1583.89 2795.45 1581.4Z" fill="#6C7AAC"/>
<path d="M2732.55 1584.07C2732.49 1584.16 2732.41 1585.85 2733 1585.14C2733.07 1585.05 2733.15 1583.36 2732.55 1584.07Z" fill="#838FB9"/>
<path d="M2778.73 1584.07C2778.67 1584.16 2778.59 1585.85 2779.18 1585.14C2779.25 1585.05 2779.33 1583.36 2778.73 1584.07Z" fill="#A5AECC"/>
<path d="M2840.75 1584.07C2840.68 1584.16 2840.6 1585.85 2841.2 1585.14C2841.26 1585.05 2841.34 1583.36 2840.75 1584.07Z" fill="#8994BD"/>
<path d="M2732.55 1587.28C2732.49 1587.36 2732.41 1589.06 2733 1588.34C2733.07 1588.26 2733.15 1586.56 2732.55 1587.28Z" fill="#465897"/>
<path d="M2778.73 1587.28C2778.67 1587.36 2778.59 1589.06 2779.18 1588.34C2779.25 1588.26 2779.33 1586.56 2778.73 1587.28Z" fill="#CFD3E4"/>
<path d="M2795.89 1587.28C2795.82 1587.36 2795.74 1589.06 2796.34 1588.34C2796.4 1588.26 2796.48 1586.56 2795.89 1587.28Z" fill="#C2C9DD"/>
<path d="M2840.75 1587.28C2840.68 1587.36 2840.6 1589.06 2841.2 1588.34C2841.26 1588.26 2841.34 1586.56 2840.75 1587.28Z" fill="#495B98"/>
<path d="M2733.87 1593.68C2733.81 1593.77 2733.73 1595.46 2734.32 1594.75C2734.39 1594.66 2734.47 1592.97 2733.87 1593.68Z" fill="#8591BA"/>
<path d="M2779.62 1592.61V1597.42C2780.54 1594.93 2780.54 1595.1 2779.62 1592.61Z" fill="#6070A6"/>
<path d="M2794.57 1593.68C2794.5 1593.77 2794.42 1595.46 2795.02 1594.75C2795.08 1594.66 2795.16 1592.97 2794.57 1593.68Z" fill="#54659F"/>
<path d="M2839.43 1593.68C2839.36 1593.77 2839.28 1595.46 2839.88 1594.75C2839.95 1594.66 2840.02 1592.97 2839.43 1593.68Z" fill="#8793BB"/>
<path d="M2733.44 1595.82V1600.62C2734.36 1598.13 2734.36 1598.31 2733.44 1595.82Z" fill="#374C8F"/>
<path d="M2794.57 1596.89C2794.5 1596.97 2794.42 1598.67 2795.02 1597.95C2795.08 1597.86 2795.16 1596.17 2794.57 1596.89Z" fill="#A0A9C9"/>
<path d="M2839.43 1596.89C2839.36 1596.97 2839.28 1598.67 2839.88 1597.95C2839.95 1597.86 2840.02 1596.17 2839.43 1596.89Z" fill="#405393"/>
<path d="M2780.05 1598.49C2779.99 1598.58 2779.91 1600.27 2780.5 1599.55C2780.57 1599.47 2780.65 1597.77 2780.05 1598.49Z" fill="#B1B9D3"/>
<path d="M2734.76 1599.02V1603.83C2735.68 1601.34 2735.68 1601.51 2734.76 1599.02Z" fill="#CACFE1"/>
<path d="M2794.57 1600.09C2794.5 1600.18 2794.42 1601.87 2795.02 1601.16C2795.08 1601.07 2795.16 1599.38 2794.57 1600.09Z" fill="#D1D7E5"/>
<path d="M2837.68 1599.02V1603.83C2838.6 1601.34 2838.6 1601.51 2837.68 1599.02Z" fill="#CFD5E5"/>
<path d="M2780.05 1601.69C2779.99 1601.78 2779.91 1603.47 2780.5 1602.75C2780.57 1602.67 2780.65 1600.98 2780.05 1601.69Z" fill="#DFE1ED"/>
<path d="M2780.94 1600.62V1605.43C2781.86 1602.94 2781.86 1603.1 2780.94 1600.62Z" fill="#34488D"/>
<path d="M2735.19 1604.9C2735.13 1604.98 2735.05 1606.68 2735.64 1605.96C2735.71 1605.88 2735.79 1604.18 2735.19 1604.9Z" fill="#6877AA"/>
<path d="M2838.11 1604.9C2838.04 1604.98 2837.97 1606.68 2838.56 1605.96C2838.63 1605.88 2838.71 1604.18 2838.11 1604.9Z" fill="#6C7AAC"/>
<path d="M2781.37 1606.5C2781.31 1606.58 2781.23 1608.28 2781.82 1607.56C2781.89 1607.48 2781.97 1605.78 2781.37 1606.5Z" fill="#7583B1"/>
<path d="M2792.81 1605.43V1610.23C2793.74 1607.75 2793.74 1607.91 2792.81 1605.43Z" fill="#6675A9"/>
<path d="M2734.76 1607.03V1611.83C2735.68 1609.35 2735.68 1609.51 2734.76 1607.03Z" fill="#31458A"/>
<path d="M2838.11 1608.1C2838.04 1608.18 2837.97 1609.88 2838.56 1609.16C2838.63 1609.08 2838.71 1607.38 2838.11 1608.1Z" fill="#394C8F"/>
<path d="M2736.08 1608.63V1613.43C2737 1610.95 2737 1611.11 2736.08 1608.63Z" fill="#D9DDEA"/>
<path d="M2781.37 1609.7C2781.31 1609.78 2781.23 1611.48 2781.82 1610.76C2781.89 1610.68 2781.97 1608.98 2781.37 1609.7Z" fill="#AEB5D1"/>
<path d="M2793.25 1611.3C2793.18 1611.38 2793.1 1613.08 2793.7 1612.36C2793.76 1612.28 2793.84 1610.58 2793.25 1611.3Z" fill="#B9BFD7"/>
<path d="M2836.36 1610.23V1615.04C2837.28 1612.55 2837.28 1612.71 2836.36 1610.23Z" fill="#A9B2CF"/>
<path d="M2780.94 1611.83V1616.64C2781.86 1614.16 2781.86 1614.32 2780.94 1611.83Z" fill="#D7DBE9"/>
<path d="M2736.51 1614.51C2736.45 1614.59 2736.37 1616.29 2736.96 1615.56C2737.03 1615.48 2737.11 1613.79 2736.51 1614.51Z" fill="#6978AB"/>
<path d="M2782.26 1613.43V1618.24C2783.18 1615.76 2783.18 1615.92 2782.26 1613.43Z" fill="#2C4088"/>
<path d="M2791.49 1613.43V1618.24C2792.42 1615.76 2792.42 1615.92 2791.49 1613.43Z" fill="#394D8F"/>
<path d="M2793.25 1614.51C2793.18 1614.59 2793.1 1616.29 2793.7 1615.56C2793.76 1615.48 2793.84 1613.79 2793.25 1614.51Z" fill="#E2E4EF"/>
<path d="M2836.79 1616.11C2836.73 1616.19 2836.65 1617.89 2837.24 1617.17C2837.31 1617.09 2837.39 1615.39 2836.79 1616.11Z" fill="#3D5091"/>
<path d="M2782.69 1619.31C2782.63 1619.39 2782.55 1621.09 2783.14 1620.37C2783.21 1620.29 2783.29 1618.59 2782.69 1619.31Z" fill="#6877AA"/>
<path d="M2791.93 1619.31C2791.86 1619.39 2791.78 1621.09 2792.38 1620.37C2792.44 1620.29 2792.52 1618.59 2791.93 1619.31Z" fill="#7E8CB7"/>
<path d="M2737.4 1619.84V1624.65C2738.32 1622.16 2738.32 1622.32 2737.4 1619.84Z" fill="#B5BDD5"/>
<path d="M2835.04 1619.84V1624.65C2835.96 1622.16 2835.96 1622.32 2835.04 1619.84Z" fill="#B9C0D7"/>
<path d="M2782.69 1622.52C2782.63 1622.6 2782.55 1624.29 2783.14 1623.57C2783.21 1623.49 2783.29 1621.79 2782.69 1622.52Z" fill="#A0A9CA"/>
<path d="M2791.93 1622.52C2791.86 1622.6 2791.78 1624.29 2792.38 1623.57C2792.44 1623.49 2792.52 1621.79 2791.93 1622.52Z" fill="#B7BFD6"/>
<path d="M2737.83 1625.72C2737.76 1625.8 2737.69 1627.5 2738.28 1626.78C2738.35 1626.7 2738.43 1625 2737.83 1625.72Z" fill="#4B5D99"/>
<path d="M2782.26 1624.65V1629.45C2783.18 1626.97 2783.18 1627.13 2782.26 1624.65Z" fill="#D1D6E5"/>
<path d="M2791.93 1625.72C2791.86 1625.8 2791.78 1627.5 2792.38 1626.78C2792.44 1626.7 2792.52 1625 2791.93 1625.72Z" fill="#D9DDEA"/>
<path d="M2835.47 1625.72C2835.41 1625.8 2835.33 1627.5 2835.92 1626.78C2835.99 1626.7 2836.07 1625 2835.47 1625.72Z" fill="#384B8F"/>
<path d="M2790.17 1626.25V1631.05C2791.1 1628.57 2791.1 1628.73 2790.17 1626.25Z" fill="#384C8F"/>
<path d="M2783.58 1627.85V1632.65C2784.5 1630.17 2784.5 1630.33 2783.58 1627.85Z" fill="#4F619C"/>
<path d="M2739.15 1630.52C2739.08 1630.6 2739 1632.3 2739.6 1631.58C2739.66 1631.5 2739.74 1629.8 2739.15 1630.52ZM2833.72 1629.45V1634.25C2834.64 1631.77 2834.64 1631.93 2833.72 1629.45Z" fill="#B3BAD4"/>
<path d="M2790.61 1632.12C2790.54 1632.2 2790.46 1633.9 2791.06 1633.18C2791.13 1633.1 2791.2 1631.4 2790.61 1632.12Z" fill="#8491BA"/>
<path d="M2738.71 1632.65V1637.46C2739.64 1634.98 2739.64 1635.14 2738.71 1632.65Z" fill="#6877AA"/>
<path d="M2784.01 1633.73C2783.95 1633.81 2783.87 1635.5 2784.46 1634.78C2784.53 1634.7 2784.61 1633.01 2784.01 1633.73Z" fill="#99A3C6"/>
<path d="M2790.61 1635.33C2790.54 1635.41 2790.46 1637.11 2791.06 1636.38C2791.13 1636.3 2791.2 1634.61 2790.61 1635.33Z" fill="#D3D7E5"/>
<path d="M2834.15 1635.33C2834.09 1635.41 2834.01 1637.11 2834.6 1636.38C2834.67 1636.3 2834.75 1634.61 2834.15 1635.33Z" fill="#3E5193"/>
<path d="M2783.58 1635.86V1642.26C2784.51 1639.44 2784.51 1638.67 2783.58 1635.86Z" fill="#E9EBF3"/>
<path d="M2788.85 1639.06V1643.86C2789.78 1641.38 2789.78 1641.54 2788.85 1639.06Z" fill="#475998"/>
<path d="M2740.47 1641.73C2740.4 1641.81 2740.32 1643.51 2740.92 1642.79C2740.98 1642.71 2741.06 1641.01 2740.47 1641.73Z" fill="#A4ADCC"/>
<path d="M2785.33 1641.73C2785.27 1641.81 2785.19 1643.51 2785.78 1642.79C2785.85 1642.71 2785.93 1641.01 2785.33 1641.73Z" fill="#445796"/>
<path d="M2832.83 1641.73C2832.77 1641.81 2832.69 1643.51 2833.28 1642.79C2833.35 1642.71 2833.43 1641.01 2832.83 1641.73Z" fill="#A0A9CA"/>
<path d="M2740.47 1644.94C2740.4 1645.02 2740.32 1646.71 2740.92 1645.99C2740.98 1645.91 2741.06 1644.22 2740.47 1644.94Z" fill="#5969A1"/>
<path d="M2785.33 1644.94C2785.27 1645.02 2785.19 1646.71 2785.78 1645.99C2785.85 1645.91 2785.93 1644.22 2785.33 1644.94Z" fill="#717FAF"/>
<path d="M2789.29 1644.94C2789.22 1645.02 2789.14 1646.71 2789.74 1645.99C2789.81 1645.91 2789.88 1644.22 2789.29 1644.94Z" fill="#95A0C3"/>
<path d="M2832.83 1644.94C2832.77 1645.02 2832.69 1646.71 2833.28 1645.99C2833.35 1645.91 2833.43 1644.22 2832.83 1644.94Z" fill="#55669F"/>
<path d="M2785.33 1648.14C2785.27 1648.22 2785.19 1649.92 2785.78 1649.2C2785.85 1649.12 2785.93 1647.42 2785.33 1648.14Z" fill="#B9BFD7"/>
<path d="M2789.29 1648.14C2789.22 1648.22 2789.14 1649.92 2789.74 1649.2C2789.81 1649.12 2789.88 1647.42 2789.29 1648.14Z" fill="#D1D6E5"/>
<path d="M2741.79 1651.34C2741.72 1651.42 2741.64 1653.12 2742.24 1652.4C2742.3 1652.32 2742.38 1650.62 2741.79 1651.34Z" fill="#95A0C3"/>
<path d="M2831.51 1651.34C2831.45 1651.42 2831.37 1653.12 2831.96 1652.4C2832.03 1652.32 2832.11 1650.62 2831.51 1651.34Z" fill="#909BC0"/>
<path d="M2787.54 1651.87C2786.23 1654.24 2786.22 1653.79 2786.22 1656.68C2788.55 1655.11 2788.8 1654.72 2787.54 1651.87Z" fill="#475998"/>
<path d="M2741.35 1653.47V1658.28C2742.28 1655.8 2742.28 1655.96 2741.35 1653.47Z" fill="#4F619C"/>
<path d="M2831.08 1653.47V1658.28C2832 1655.8 2832 1655.96 2831.08 1653.47Z" fill="#4C5E9B"/>
<path d="M2786.22 1656.68V1659.88H2788.85V1656.68L2786.22 1656.68Z" fill="#7683B1"/>
<path d="M2786.22 1659.88V1663.08C2788.38 1662.2 2788.13 1662.51 2788.85 1659.88H2786.22Z" fill="#BEC4DB"/>
<path d="M2743.11 1662.55C2743.04 1662.63 2742.96 1664.33 2743.56 1663.61C2743.62 1663.53 2743.7 1661.83 2743.11 1662.55Z" fill="#8692BB"/>
<path d="M2830.19 1662.55C2830.13 1662.63 2830.05 1664.33 2830.64 1663.61C2830.71 1663.53 2830.79 1661.83 2830.19 1662.55Z" fill="#6171A6"/>
<path d="M2742.67 1664.68V1669.49C2743.6 1667.01 2743.6 1667.17 2742.67 1664.68Z" fill="#475997"/>
<path d="M2830.19 1665.76C2830.13 1665.84 2830.05 1667.53 2830.64 1666.81C2830.71 1666.73 2830.79 1665.04 2830.19 1665.76Z" fill="#31458B"/>
<path d="M2828.44 1666.29V1671.09C2829.36 1668.61 2829.36 1668.77 2828.44 1666.29Z" fill="#D1D6E5"/>
<path d="M2743.99 1667.89V1672.69C2744.92 1670.21 2744.92 1670.37 2743.99 1667.89Z" fill="#C2C8DD"/>
<path d="M2828.87 1672.16C2828.81 1672.24 2828.73 1673.94 2829.32 1673.22C2829.39 1673.14 2829.47 1671.44 2828.87 1672.16Z" fill="#6C7BAD"/>
<path d="M2744.43 1673.76C2744.36 1673.84 2744.28 1675.54 2744.88 1674.82C2744.94 1674.74 2745.02 1673.04 2744.43 1673.76Z" fill="#5A6AA1"/>
<path d="M2828.44 1674.29V1679.1C2829.36 1676.62 2829.36 1676.78 2828.44 1674.29Z" fill="#394C90"/>
<path d="M2745.31 1677.5V1682.3C2746.24 1679.82 2746.24 1679.98 2745.31 1677.5Z" fill="#D0D5E4"/>
<path d="M2827.55 1678.57C2827.49 1678.65 2827.41 1680.35 2828 1679.63C2828.07 1679.55 2828.15 1677.85 2827.55 1678.57Z" fill="#ADB5D1"/>
<path d="M2827.55 1681.77C2827.49 1681.85 2827.41 1683.55 2828 1682.83C2828.07 1682.75 2828.15 1681.05 2827.55 1681.77Z" fill="#5F6FA6"/>
<path d="M2745.75 1683.37C2745.68 1683.45 2745.6 1685.15 2746.2 1684.43C2746.26 1684.35 2746.34 1682.65 2745.75 1683.37Z" fill="#51639D"/>
<path d="M2746.63 1687.11V1691.91C2747.56 1689.43 2747.56 1689.59 2746.63 1687.11Z" fill="#C6CCDF"/>
<path d="M2826.24 1688.18C2826.17 1688.26 2826.09 1689.96 2826.69 1689.24C2826.75 1689.16 2826.83 1687.46 2826.24 1688.18Z" fill="#BAC1D9"/>
<path d="M2826.24 1691.38C2826.17 1691.46 2826.09 1693.16 2826.69 1692.44C2826.75 1692.36 2826.83 1690.66 2826.24 1691.38Z" fill="#7B88B4"/>
<path d="M2747.07 1692.98C2747 1693.06 2746.92 1694.76 2747.52 1694.04C2747.58 1693.96 2747.66 1692.26 2747.07 1692.98Z" fill="#6372A7"/>
<path d="M2747.95 1698.32V1703.12C2748.88 1700.64 2748.88 1700.8 2747.95 1698.32Z" fill="#A4ADCC"/>
<path d="M2824.48 1698.32V1703.12C2825.41 1700.64 2825.41 1700.8 2824.48 1698.32Z" fill="#929DC1"/>
<path d="M2748.39 1704.19C2748.32 1704.27 2748.24 1705.97 2748.84 1705.25C2748.9 1705.17 2748.98 1703.47 2748.39 1704.19Z" fill="#32468B"/>
<path d="M2823.16 1707.93V1712.73C2824.09 1710.25 2824.09 1710.41 2823.16 1707.93Z" fill="#A4ADCC"/>
<path d="M2749.71 1710.6C2749.64 1710.68 2749.56 1712.38 2750.16 1711.66C2750.22 1711.58 2750.3 1709.88 2749.71 1710.6Z" fill="#919BC1"/>
<path d="M2749.71 1713.8C2749.64 1713.88 2749.56 1715.58 2750.16 1714.86C2750.22 1714.78 2750.3 1713.08 2749.71 1713.8Z" fill="#465897"/>
<path d="M2823.6 1713.8C2823.53 1713.88 2823.45 1715.58 2824.05 1714.86C2824.11 1714.78 2824.19 1713.08 2823.6 1713.8Z" fill="#374B8E"/>
<path d="M2822.28 1718.61C2822.21 1718.69 2822.13 1720.39 2822.73 1719.66C2822.79 1719.58 2822.87 1717.89 2822.28 1718.61Z" fill="#99A3C5"/>
<path d="M2751.03 1720.21C2750.96 1720.29 2750.88 1721.99 2751.47 1721.27C2751.54 1721.19 2751.62 1719.49 2751.03 1720.21Z" fill="#8692BB"/>
<path d="M2821.84 1720.74V1725.54C2822.77 1723.06 2822.77 1723.22 2821.84 1720.74Z" fill="#54659F"/>
<path d="M2750.59 1722.34V1727.14C2751.51 1724.66 2751.51 1724.82 2750.59 1722.34Z" fill="#4C5D9A"/>
<path d="M2751.91 1727.14C2758.47 1730.49 2767.28 1728.75 2774.34 1728.75H2821.84C2815.28 1725.4 2806.47 1727.14 2799.41 1727.14L2751.91 1727.14Z" fill="#95A0C3"/>
<path d="M174.539 1849.69L160.539 1861.19C154.533 1867.01 159.173 1877.53 167.539 1877.53L356.301 1877.19C361.757 1877.19 367.175 1876.3 372.342 1874.55L390.923 1868.25C393.993 1867.21 396.955 1865.88 399.767 1864.26L426.039 1849.19L437.984 1841.64C442.591 1838.73 446.268 1834.57 448.581 1829.63C451.153 1824.15 451.911 1817.98 450.745 1812.04L449.519 1805.78C448.214 1799.13 448.334 1792.27 449.87 1785.67L449.921 1785.45C451.643 1778.04 455.063 1771.14 459.911 1765.28L464.539 1759.69L483.1 1736.91C485.386 1734.1 487.97 1731.55 490.807 1729.31L507.527 1716.06C511.184 1713.16 515.229 1710.79 519.543 1709.01L523.958 1707.19C527.995 1705.53 531.797 1703.35 535.266 1700.7L554.401 1686.08C556.49 1684.49 558.45 1682.73 560.262 1680.83L574.931 1665.43C576.667 1663.6 578.539 1661.91 580.53 1660.37L608.539 1638.69L625.884 1624.87C633.801 1618.56 639.617 1610 642.564 1600.32L643.281 1597.96C644.449 1594.13 646.074 1590.44 648.122 1587L654.539 1576.19L657.945 1568.98C661.055 1562.39 667.685 1558.19 674.969 1558.19C679.223 1558.19 683.352 1556.75 686.683 1554.1L696.846 1546.02C699.634 1543.81 702.177 1541.3 704.432 1538.54L709.67 1532.14C712.897 1528.2 715.503 1523.78 717.396 1519.05L725.697 1498.29C727.581 1493.58 728.737 1488.62 729.126 1483.56L729.621 1477.13C730.536 1465.23 735.678 1454.05 744.118 1445.61L745.039 1444.69L772.539 1421.19L811.039 1393.69L838.039 1371.19L863.039 1348.19L885.039 1323.19L908.539 1293.19L929.039 1262.69L947.223 1240.55C950.415 1236.66 954.176 1233.28 958.378 1230.52L985.205 1212.87C988.417 1210.76 991.863 1209.02 995.473 1207.7L1016.48 1199.99C1018.85 1199.12 1021.28 1198.44 1023.75 1197.93L1040.35 1194.57C1049.62 1192.69 1059.23 1193.47 1068.07 1196.83L1090.04 1205.19L1103.89 1211.73C1106.62 1213.02 1109.61 1213.69 1112.63 1213.69C1114.89 1213.69 1117.13 1214.06 1119.26 1214.79L1130.98 1218.8C1133.68 1219.72 1136.3 1220.88 1138.8 1222.25L1161.54 1234.69L1219.54 1266.69L1266.54 1290.69L1318.04 1314.69L1370.04 1342.19L1442.04 1370.19L1483.54 1383.69L1524.92 1395.51C1527.66 1396.29 1530.33 1397.31 1532.9 1398.55L1571.54 1417.19L1620.04 1441.19L1657.04 1457.69L1702.75 1476.81C1704.94 1477.73 1707.19 1478.49 1709.49 1479.08L1758.04 1491.69L1801.04 1505.19L1843.54 1522.69L1875.54 1540.19L1920.04 1564.19L1950.8 1582.05C1960.54 1587.71 1966.54 1598.12 1966.54 1609.39C1966.54 1619.62 1971.49 1629.21 1979.82 1635.14L1994.55 1645.64C1997.85 1647.99 2001.52 1649.78 2005.41 1650.94L2010.99 1652.6C2021.38 1655.7 2029.02 1664.56 2030.55 1675.3C2030.88 1677.55 2031.47 1679.75 2032.33 1681.86L2046.54 1716.69L2056.56 1747.09C2059.49 1755.98 2064.85 1763.86 2072.04 1769.85L2072.91 1770.58C2078.91 1775.58 2086 1779.11 2093.61 1780.88L2104.46 1783.39C2108.17 1784.25 2111.96 1784.69 2115.77 1784.69H2142.11C2149.9 1784.69 2157.51 1782.43 2164.04 1778.19L2182.04 1765.19L2193.94 1755.6C2197.98 1752.35 2201.49 1748.48 2204.34 1744.14L2209.8 1735.84C2211.62 1733.08 2213.16 1730.14 2214.4 1727.07L2222.82 1706.21C2223.62 1704.22 2224.82 1702.4 2226.35 1700.88L2227.41 1699.81C2229.74 1697.49 2231.04 1694.34 2231.04 1691.06V1681.98C2231.04 1680.16 2229.56 1678.69 2227.75 1678.69C2225.77 1678.69 2224.24 1676.97 2224.48 1675.01L2226.89 1654.68C2227.29 1651.27 2229.44 1648.31 2232.56 1646.87C2237.11 1644.77 2239.36 1639.6 2237.8 1634.83L2233.1 1620.47C2231.74 1616.34 2229.41 1612.61 2226.3 1609.58L2216.57 1600.11C2213.89 1597.5 2210.93 1595.21 2207.73 1593.26L2192.04 1583.69L2164.04 1569.69L2143.68 1562.48C2141.26 1561.62 2138.77 1560.95 2136.24 1560.47L2101.07 1553.85C2098.72 1553.41 2096.4 1552.8 2094.14 1552.02L2064.25 1541.8C2061.12 1540.73 2058.1 1539.35 2055.24 1537.68L2029.54 1522.69L2008.04 1511.19L1987.54 1498.69L1965.74 1484.94C1958.72 1480.51 1952.91 1474.4 1948.84 1467.16L1944.23 1458.97C1942.44 1455.79 1940.31 1452.82 1937.88 1450.1L1915.54 1425.19L1879.54 1393.19L1840.54 1363.69L1799.04 1339.69L1758.54 1318.19L1702.54 1292.19L1651.54 1272.19L1620.54 1260.19L1582.04 1248.69L1552.76 1241.47C1547.97 1240.29 1543.39 1238.41 1539.15 1235.89L1524.54 1227.19L1503.54 1210.69L1478.54 1188.19L1470.54 1179.19L1437.04 1138.69L1407.1 1106.91C1405.4 1105.1 1403.56 1103.42 1401.6 1101.88L1369.54 1076.69L1332.54 1049.19L1121.43 900.418C1113.5 894.832 1108.14 886.304 1106.55 876.739L1106.14 874.263C1103.96 861.217 1094.1 850.787 1081.2 847.879C1072.19 845.848 1064.46 840.08 1059.96 832.015L1057.54 827.688L1047.31 812.873C1044.48 808.773 1042.28 804.272 1040.78 799.52L1038.79 793.248C1037.63 789.554 1036.9 785.736 1036.61 781.873L1031.54 713.188V682.188C1031.54 665.067 1045.42 651.188 1062.54 651.188H1087.48C1092.16 651.188 1096.81 650.485 1101.29 649.102L1114.98 644.87C1119.46 643.486 1123.1 640.198 1124.93 635.884C1127.42 630.005 1133.19 626.188 1139.57 626.188H1171.54L1209.04 622.188L1246.54 616.188L1268.54 610.188C1275.78 608.213 1283.37 607.894 1290.75 609.253L1291.76 609.439C1296.26 610.267 1300.85 610.475 1305.4 610.056L1380.04 603.188L1500.04 586.188L1519.3 583.257C1521.79 582.878 1524.3 582.688 1526.82 582.688H1543.04L1575.04 579.188L1616.54 576.188L1654.54 570.688L1684.27 562.843C1688.43 561.744 1692.72 561.188 1697.03 561.188H1711C1716.51 561.188 1721.82 563.185 1725.96 566.808C1727.01 567.726 1728.14 568.545 1729.34 569.255L1735.02 572.619C1739.01 574.986 1742.66 577.899 1745.85 581.273L1755.71 591.699C1757.59 593.688 1759.64 595.519 1761.82 597.174L1773.04 605.688L1797.58 623.88C1800.54 626.078 1803.74 627.941 1807.12 629.436L1832.54 640.688L1860.04 652.188L1898.54 667.188L1930.04 676.688L1969.04 687.688L1993.25 691.936C1996.1 692.436 1999 692.688 2001.89 692.688H2025.35C2036.72 692.688 2047.68 688.403 2056.04 680.688L2064.11 671.209C2066.32 668.613 2067.54 665.315 2067.54 661.906V660.494C2067.54 654.266 2072.06 648.959 2078.21 647.967C2081.32 647.465 2084.13 645.826 2086.1 643.366L2099.04 627.188L2115.04 602.688L2122.89 590.917C2126.94 584.838 2129.61 577.945 2130.71 570.722L2133.54 552.188L2136.31 529.63C2136.79 525.682 2136.81 521.691 2136.35 517.741L2134.69 503.521C2133.93 497.028 2131.91 490.747 2128.73 485.033L2127.41 482.658C2123.23 475.138 2117.19 468.824 2109.85 464.324L2099.04 457.687L2074.54 445.187L2041.01 428.424C2038.7 427.268 2036.3 426.293 2033.84 425.508L2003.04 415.687L1973.61 407.512C1969.25 406.301 1964.75 405.687 1960.22 405.687H1942.94C1936.08 405.687 1929.29 407.099 1923 409.834L1909.54 415.687L1888.04 426.687L1869.9 435.758C1867.33 437.042 1864.66 438.102 1861.91 438.927L1841.04 445.187L1820.54 454.187L1805.52 461.699C1800.24 464.337 1794.54 466.021 1788.68 466.672L1782.98 467.306C1774.81 468.213 1767 471.118 1760.22 475.763L1753.04 480.687L1746.82 485.311C1738.2 491.724 1727.74 495.188 1716.99 495.188H1386.04L1339.04 498.688L1298.11 504.206C1295.77 504.522 1293.55 505.446 1291.68 506.887C1289.32 508.703 1286.42 509.688 1283.45 509.688H1272.25C1268.46 509.688 1264.68 509.222 1261 508.302L1246.54 504.688L1215.04 498.688L1188.54 495.188H1171.98C1170.08 495.188 1168.54 493.649 1168.54 491.751C1168.54 490.005 1167.23 488.536 1165.5 488.336L1142.54 485.687L1082.54 480.687L1037.54 476.187L998.923 473.184C994.851 472.867 991.091 470.877 988.539 467.687C982.611 458.639 972.522 453.187 961.704 453.187H947.539L929.987 455.528C926.731 455.962 923.42 455.648 920.304 454.609L915.064 452.862C909.376 450.966 905.539 445.643 905.539 439.647C905.539 437.375 906.095 435.138 907.158 433.13L911.189 425.515C913.411 421.319 915.005 416.821 915.923 412.163L920.097 390.973C920.724 387.79 921.039 384.554 921.039 381.31V312.377C921.039 310.339 922.691 308.687 924.729 308.687C924.935 308.687 925.142 308.67 925.346 308.636L977.375 299.817C981.798 299.067 986.099 297.726 990.164 295.829L1003.43 289.638C1005.47 288.684 1007.27 287.267 1008.67 285.499C1013.79 279.047 1012.53 269.635 1005.89 264.757L1003.47 262.974C1001.86 261.792 1000.06 260.894 998.15 260.321L981.039 255.187L969.011 252.18C965.045 251.189 960.972 250.687 956.884 250.687H938.929C930.416 250.687 922.635 245.878 918.828 238.265C918.303 237.215 917.697 236.208 917.015 235.253L909.776 225.118C906.966 221.185 903.601 217.68 899.786 214.713L887.891 205.461C884.669 202.955 881.152 200.852 877.419 199.201L857.039 190.187L825.539 180.687L810.857 177.116C808.316 176.498 805.73 176.08 803.124 175.866L776.539 173.687H756.974C753.362 173.687 749.76 174.079 746.231 174.855L734.648 177.403C729.279 178.585 724.142 180.643 719.442 183.496L716.249 185.435C713.781 186.934 711.446 188.644 709.273 190.545L701.984 196.923C698.373 200.083 695.236 203.746 692.668 207.799L687.039 216.687L677.039 235.187L668.539 255.187L662.539 273.687L658.039 291.187L656.51 301.896C655.866 306.402 655.84 310.976 656.434 315.49L658.039 327.687L660.92 345.294C661.982 351.784 664.667 357.901 668.724 363.078L672.765 368.234C675.534 371.767 677.039 376.127 677.039 380.616C677.039 391.701 668.053 400.687 656.968 400.687H643.766C635.577 400.687 628.607 394.723 627.343 386.631C627.141 385.34 626.788 384.077 626.29 382.868L622.013 372.48C620.701 369.293 619.063 366.251 617.125 363.402L611.539 355.187L599.539 341.187L583.039 324.687L564.539 308.687C553.4 299.173 555.986 281.296 569.364 275.327L573.039 273.687L592.833 263.588C595.962 261.992 598.914 260.071 601.64 257.856L629.539 235.187L701.039 173.687L705.326 169.877C708.456 167.095 711.923 164.717 715.646 162.799L726.539 157.187L734.539 153.687L749.039 145.687L761.039 138.687L769.995 132.239C772.353 130.541 774.856 129.052 777.473 127.789L783.694 124.785C786.584 123.39 789.602 122.276 792.706 121.459L807.039 117.687L821.275 112.301C824.112 111.227 827.041 110.414 830.025 109.872L847.539 106.687L872.039 101.687L893.932 99.1116C896.334 98.8291 898.712 98.3728 901.047 97.7463L909.085 95.5897C915.004 94.0016 920.581 91.3389 925.537 87.7344L931.367 83.4948C933.478 81.9588 935.467 80.2598 937.314 78.4133L943.539 72.1873L954.039 58.6873L956.875 53.789C958.646 50.7298 960.088 47.4914 961.176 44.1282L962.611 39.6913C964.22 34.7194 965.039 29.526 965.039 24.3003V17.6873C965.039 8.29843 957.428 0.687269 948.039 0.687269L753 0C750.075 0 749.039 3.05874 749.039 5.9841C749.039 6.45083 748.978 6.91552 748.856 7.36609L744.039 25.1873L742.292 33.704C740.809 40.9364 737.742 47.7505 733.312 53.6568L731.214 56.4546C728.116 60.5848 724.398 64.2104 720.19 67.2023L704.039 78.6873L685.531 91.1697C683.539 92.513 681.453 93.7111 679.289 94.7545L654.539 106.687L585.039 140.687L564.539 152.687L540.539 167.187L520.039 182.187L502.039 196.187L477.539 216.687L460.039 233.687L444.925 244.927C442.012 247.093 439.369 249.6 437.053 252.395C429.958 260.958 426.251 271.826 426.634 282.939L428.413 334.522C428.493 336.84 429.618 338.997 431.474 340.388C433.404 341.836 434.539 344.107 434.539 346.519V354.973C434.539 358.411 435.261 361.811 436.657 364.952L440.539 373.687L445.039 389.187L449.169 404.203C450.08 407.517 451.331 410.728 452.901 413.786L460.039 427.687L468.92 445.044C470.33 447.8 471.481 450.682 472.358 453.651L477.539 471.187L483.039 489.187L492.539 510.188L499.961 525.031C501.344 527.796 502.467 530.683 503.316 533.656L508.039 550.188L514.716 569.382C515.597 571.915 516.68 574.373 517.955 576.732L526.039 591.688L530.869 603.072C532.311 606.472 533.373 610.021 534.033 613.655L537.039 630.188L540.039 654.688L545.539 677.188L555.039 711.188L566.039 745.188L570.121 763.557C570.732 766.306 571.574 768.998 572.638 771.605L581.039 792.188L593.039 815.188L602.539 833.688L611.039 853.688L619.036 868.481C620.369 870.948 621.493 873.522 622.394 876.178L630.039 898.688L638.039 923.688L641.434 943.376C642.495 949.53 644.699 955.43 647.932 960.771L651.812 967.183C653.625 970.178 655.748 972.974 658.145 975.526L667.61 985.602C669.227 987.323 670.974 988.918 672.836 990.371L679.893 995.878C686.612 1001.12 690.539 1009.17 690.539 1017.69V1024.34C690.539 1026.18 691.155 1027.98 692.289 1029.44C693.424 1030.9 694.039 1032.69 694.039 1034.54V1080.17C694.039 1091.58 688.942 1102.39 680.14 1109.65C676.116 1112.97 672.813 1117.08 670.437 1121.73L663.039 1136.19L654.539 1152.69L643.039 1175.69L630.539 1198.19L621.539 1213.19L607.039 1232.69L591.539 1255.69L579.539 1276.69L568.039 1298.19L555.539 1324.19L546.039 1347.19L538.089 1367.86C536.739 1371.37 534.632 1374.54 531.916 1377.14L531.777 1377.27C526.834 1382.01 524.039 1388.56 524.039 1395.4C524.039 1398.24 523.559 1401.05 522.619 1403.73L517.539 1418.19L510.552 1436.68C509.547 1439.34 508.852 1442.11 508.481 1444.93L507.375 1453.34C506.839 1457.41 504.748 1461.12 501.539 1463.69L490.539 1471.19L478.945 1480.78C477.011 1482.38 475.199 1484.13 473.527 1486L463.539 1497.19L452.039 1512.69L439.539 1535.69L427.039 1559.69L416.847 1575.76C414.98 1578.7 413.427 1581.83 412.211 1585.1L406.039 1601.69L397.039 1623.69L390.539 1644.69L382.539 1668.19L374.039 1688.69L364.539 1707.69L353.039 1729.69L341.539 1750.69L334.446 1761.48C331.527 1765.92 327.918 1769.87 323.755 1773.18L313.039 1781.69L296.539 1792.19L283.389 1800.72C279.837 1803.02 276.007 1804.87 271.99 1806.2L260.039 1810.19L241.039 1815.69L220.039 1822.19L206.565 1828.53C204.218 1829.63 201.961 1830.92 199.813 1832.37L187.539 1840.69L174.539 1849.69Z" fill="white"/>
<path d="M45.56 2103V1996.62H66.26V2088.6H90.38V2103H45.56Z" fill="#1E1E1E"/>
<path d="M142.549 2103V1996.62H163.429V2103H142.549Z" fill="#1E1E1E"/>
<path d="M244.104 2104.98C240.024 2104.98 236.184 2104.32 232.584 2103C229.104 2101.68 226.224 2099.1 223.944 2095.26C221.664 2091.3 220.524 2085.42 220.524 2077.62V2019.3C220.524 2013.06 221.724 2008.2 224.124 2004.72C226.644 2001.24 230.124 1998.84 234.564 1997.52C239.004 1996.08 244.164 1995.36 250.044 1995.36C255.924 1995.36 261.084 1996.08 265.524 1997.52C270.084 1998.84 273.624 2001.24 276.144 2004.72C278.784 2008.2 280.104 2013.06 280.104 2019.3V2034.24H259.764V2018.22C259.764 2015.34 259.344 2013.18 258.504 2011.74C257.784 2010.18 256.764 2009.16 255.444 2008.68C254.124 2008.2 252.504 2007.96 250.584 2007.96C248.784 2007.96 247.164 2008.2 245.724 2008.68C244.404 2009.16 243.324 2010.18 242.484 2011.74C241.764 2013.18 241.404 2015.34 241.404 2018.22V2082.66C241.404 2085.42 241.764 2087.58 242.484 2089.14C243.324 2090.58 244.404 2091.6 245.724 2092.2C247.164 2092.68 248.784 2092.92 250.584 2092.92C253.344 2092.92 255.564 2092.08 257.244 2090.4C258.924 2088.72 259.764 2086.14 259.764 2082.66V2061.42H251.124V2049.54H280.104V2103H264.444L263.364 2094.72C263.124 2095.08 262.884 2095.44 262.644 2095.8C262.404 2096.16 262.224 2096.46 262.104 2096.7C260.904 2098.74 258.864 2100.66 255.984 2102.46C253.224 2104.14 249.264 2104.98 244.104 2104.98Z" fill="#1E1E1E"/>
<path d="M330.583 2103L349.663 1996.62H379.543L398.263 2103H374.863L371.623 2083.38H356.143L353.083 2103H330.583ZM356.503 2072.94H371.443L364.063 2015.16L356.503 2072.94Z" fill="#1E1E1E"/>
<path d="M523.474 2103V1996.62H560.734C565.774 1996.62 569.914 1997.34 573.154 1998.78C576.514 2000.22 578.974 2002.44 580.534 2005.44C582.214 2008.32 583.054 2011.98 583.054 2016.42V2080.14C583.054 2086.02 582.034 2090.64 579.994 2094C577.954 2097.36 575.014 2099.7 571.174 2101.02C567.454 2102.34 563.014 2103 557.854 2103H523.474ZM545.254 2092.2H554.434C556.834 2092.2 558.694 2091.48 560.014 2090.04C561.454 2088.6 562.174 2085.9 562.174 2081.94V2018.76C562.174 2014.8 561.454 2012.1 560.014 2010.66C558.694 2009.22 556.834 2008.5 554.434 2008.5H545.254V2092.2Z" fill="#1E1E1E"/>
<path d="M640.151 2103V1996.62H689.111V2011.38H661.931V2039.82H684.971V2056.2H661.931V2088.6H689.111V2103H640.151Z" fill="#1E1E1E"/>
<path d="M843.551 2104.26C837.191 2104.26 831.731 2103.36 827.171 2101.56C822.731 2099.76 819.311 2096.58 816.911 2092.02C814.511 2087.46 813.311 2081.04 813.311 2072.76V2066.46C817.031 2066.46 820.691 2066.46 824.291 2066.46C827.891 2066.46 831.491 2066.46 835.091 2066.46V2074.56C835.091 2079 835.451 2082.42 836.171 2084.82C836.891 2087.1 837.911 2088.72 839.231 2089.68C840.551 2090.52 842.111 2090.94 843.911 2090.94C846.671 2090.94 848.831 2089.98 850.391 2088.06C852.071 2086.02 852.911 2082.12 852.911 2076.36C852.911 2071.92 852.191 2068.62 850.751 2066.46C849.431 2064.18 847.271 2062.38 844.271 2061.06C841.271 2059.62 837.431 2057.88 832.751 2055.84C828.551 2054.04 825.071 2051.88 822.311 2049.36C819.551 2046.84 817.511 2043.66 816.191 2039.82C814.871 2035.98 814.211 2031.3 814.211 2025.78C814.211 2018.82 815.111 2013.18 816.911 2008.86C818.831 2004.54 821.951 2001.42 826.271 1999.5C830.711 1997.46 836.651 1996.44 844.091 1996.44C853.691 1996.44 861.011 1998.54 866.051 2002.74C871.211 2006.82 873.791 2013 873.791 2021.28V2034.06C870.311 2034.06 866.831 2034.06 863.351 2034.06C859.991 2034.06 856.511 2034.06 852.911 2034.06V2027.58C852.911 2022.18 852.251 2018.4 850.931 2016.24C849.731 2014.08 847.511 2013 844.271 2013C841.151 2013 838.931 2013.96 837.611 2015.88C836.291 2017.8 835.631 2020.92 835.631 2025.24C835.631 2029.2 836.411 2032.32 837.971 2034.6C839.651 2036.76 841.751 2038.44 844.271 2039.64C846.791 2040.72 849.491 2041.8 852.371 2042.88C857.651 2044.92 861.971 2047.02 865.331 2049.18C868.691 2051.22 871.151 2054.1 872.711 2057.82C874.271 2061.42 875.051 2066.64 875.051 2073.48C875.051 2081.16 873.731 2087.28 871.091 2091.84C868.571 2096.28 864.911 2099.46 860.111 2101.38C855.431 2103.3 849.911 2104.26 843.551 2104.26Z" fill="#1E1E1E"/>
<path d="M958.323 2105.16C952.443 2105.16 947.283 2104.44 942.843 2103C938.403 2101.68 934.923 2098.86 932.403 2094.54C930.003 2090.1 928.803 2083.56 928.803 2074.92V2019.12C928.803 2012.76 930.003 2007.84 932.403 2004.36C934.923 2000.88 938.403 1998.48 942.843 1997.16C947.403 1995.72 952.623 1995 958.503 1995C964.263 1995 969.363 1995.72 973.803 1997.16C978.363 1998.6 981.903 2001.06 984.423 2004.54C987.063 2008.02 988.383 2012.88 988.383 2019.12V2074.74C988.383 2083.5 987.063 2090.1 984.423 2094.54C981.903 2098.86 978.363 2101.68 973.803 2103C969.363 2104.44 964.203 2105.16 958.323 2105.16ZM958.323 2092.92C960.123 2092.92 961.683 2092.62 963.003 2092.02C964.443 2091.42 965.523 2090.4 966.243 2088.96C967.083 2087.4 967.503 2085.3 967.503 2082.66V2018.22C967.503 2015.58 967.083 2013.54 966.243 2012.1C965.523 2010.54 964.443 2009.46 963.003 2008.86C961.683 2008.26 960.123 2007.96 958.323 2007.96C956.523 2007.96 954.963 2008.26 953.643 2008.86C952.323 2009.46 951.243 2010.54 950.403 2012.1C949.683 2013.54 949.323 2015.58 949.323 2018.22V2082.66C949.323 2085.3 949.683 2087.4 950.403 2088.96C951.243 2090.4 952.323 2091.42 953.643 2092.02C954.963 2092.62 956.523 2092.92 958.323 2092.92ZM947.883 1988.88L961.923 1971.96H980.823L959.403 1988.88H947.883Z" fill="#1E1E1E"/>
<path d="M1045.51 2103V1996.62H1094.47V2011.38H1067.29V2039.82H1090.33V2056.2H1067.29V2103H1045.51Z" fill="#1E1E1E"/>
<path d="M1158.57 2103V2011.38H1142.01V1996.62H1196.01V2011.38H1179.45V2103H1158.57Z" fill="#1E1E1E"/>
<path d="M1248.45 2103V1996.62H1286.25C1292.97 1996.62 1298.07 1998.24 1301.55 2001.48C1305.15 2004.6 1306.95 2008.98 1306.95 2014.62V2026.68C1306.95 2029.8 1306.47 2032.68 1305.51 2035.32C1304.67 2037.84 1303.35 2040 1301.55 2041.8C1300.23 2043.12 1298.55 2044.14 1296.51 2044.86C1294.47 2045.58 1292.49 2046 1290.57 2046.12V2046.3C1292.61 2046.3 1294.59 2046.54 1296.51 2047.02C1298.43 2047.5 1300.23 2048.46 1301.91 2049.9C1303.95 2051.46 1305.57 2053.62 1306.77 2056.38C1307.97 2059.02 1308.57 2062.32 1308.57 2066.28V2080.86C1308.57 2086.62 1307.55 2091.12 1305.51 2094.36C1303.59 2097.6 1300.77 2099.88 1297.05 2101.2C1293.45 2102.4 1289.13 2103 1284.09 2103H1248.45ZM1269.51 2092.02H1279.23C1281.03 2092.02 1282.47 2091.72 1283.55 2091.12C1284.75 2090.4 1285.65 2089.14 1286.25 2087.34C1286.97 2085.54 1287.33 2082.9 1287.33 2079.42V2066.82C1287.33 2062.02 1286.49 2058.9 1284.81 2057.46C1283.25 2055.9 1281.15 2055.12 1278.51 2055.12H1269.51V2092.02ZM1269.51 2041.98H1277.97C1280.73 2041.98 1282.89 2041.02 1284.45 2039.1C1286.13 2037.18 1286.97 2033.82 1286.97 2029.02V2018.4C1286.97 2014.68 1286.25 2012.04 1284.81 2010.48C1283.49 2008.8 1281.75 2007.96 1279.59 2007.96H1269.51V2041.98Z" fill="#1E1E1E"/>
<path d="M1393.04 2105.16C1387.16 2105.16 1382 2104.44 1377.56 2103C1373.12 2101.68 1369.64 2098.86 1367.12 2094.54C1364.72 2090.1 1363.52 2083.56 1363.52 2074.92V2019.12C1363.52 2012.76 1364.72 2007.84 1367.12 2004.36C1369.64 2000.88 1373.12 1998.48 1377.56 1997.16C1382.12 1995.72 1387.34 1995 1393.22 1995C1398.98 1995 1404.08 1995.72 1408.52 1997.16C1413.08 1998.6 1416.62 2001.06 1419.14 2004.54C1421.78 2008.02 1423.1 2012.88 1423.1 2019.12V2074.74C1423.1 2083.5 1421.78 2090.1 1419.14 2094.54C1416.62 2098.86 1413.08 2101.68 1408.52 2103C1404.08 2104.44 1398.92 2105.16 1393.04 2105.16ZM1393.04 2092.92C1394.84 2092.92 1396.4 2092.62 1397.72 2092.02C1399.16 2091.42 1400.24 2090.4 1400.96 2088.96C1401.8 2087.4 1402.22 2085.3 1402.22 2082.66V2018.22C1402.22 2015.58 1401.8 2013.54 1400.96 2012.1C1400.24 2010.54 1399.16 2009.46 1397.72 2008.86C1396.4 2008.26 1394.84 2007.96 1393.04 2007.96C1391.24 2007.96 1389.68 2008.26 1388.36 2008.86C1387.04 2009.46 1385.96 2010.54 1385.12 2012.1C1384.4 2013.54 1384.04 2015.58 1384.04 2018.22V2082.66C1384.04 2085.3 1384.4 2087.4 1385.12 2088.96C1385.96 2090.4 1387.04 2091.42 1388.36 2092.02C1389.68 2092.62 1391.24 2092.92 1393.04 2092.92Z" fill="#1E1E1E"/>
<path d="M1480.22 2103V1996.62H1500.92V2088.6H1525.04V2103H1480.22Z" fill="#1E1E1E"/>
<path d="M1650.3 2103V1996.62H1689.18C1696.26 1996.62 1701.6 1998.24 1705.2 2001.48C1708.8 2004.6 1710.6 2008.98 1710.6 2014.62V2031.18C1710.6 2036.82 1709.1 2041.56 1706.1 2045.4C1703.1 2049.24 1698.42 2051.46 1692.06 2052.06C1696.14 2052.66 1699.02 2054.04 1700.7 2056.2C1702.5 2058.24 1704.06 2061.6 1705.38 2066.28L1715.46 2103H1692.24L1684.5 2067.72C1683.78 2064.84 1682.94 2062.44 1681.98 2060.52C1681.14 2058.48 1679.88 2057.46 1678.2 2057.46H1672.08V2103H1650.3ZM1672.08 2042.88H1680.72C1684.08 2042.88 1686.48 2041.98 1687.92 2040.18C1689.36 2038.26 1690.08 2035.26 1690.08 2031.18V2018.4C1690.08 2014.56 1689.42 2011.86 1688.1 2010.3C1686.78 2008.74 1684.74 2007.96 1681.98 2007.96H1672.08V2042.88Z" fill="#1E1E1E"/>
<path d="M1762.96 2103L1782.04 1996.62H1811.92L1830.64 2103H1807.24L1804 2083.38H1788.52L1785.46 2103H1762.96ZM1788.88 2072.94H1803.82L1796.44 2015.16L1788.88 2072.94Z" fill="#1E1E1E"/>
<path d="M1882.77 2103V1996.62H1931.73V2011.38H1904.55V2039.82H1927.59V2056.2H1904.55V2103H1882.77Z" fill="#1E1E1E"/>
<path d="M1972.58 2103L1991.66 1996.62H2021.54L2040.26 2103H2016.86L2013.62 2083.38H1998.14L1995.08 2103H1972.58ZM1998.5 2072.94H2013.44L2006.06 2015.16L1998.5 2072.94Z" fill="#1E1E1E"/>
<path d="M2092.39 2103V1996.62H2141.35V2011.38H2114.17V2039.82H2137.21V2056.2H2114.17V2088.6H2141.35V2103H2092.39Z" fill="#1E1E1E"/>
<path d="M2195.71 2103V1996.62H2216.41V2088.6H2240.53V2103H2195.71Z" fill="#1E1E1E"/>
<path d="M2378.02 2103L2360.56 1996.62H2382.16L2392.96 2080.86L2404.12 1996.62H2425L2407.36 2103H2378.02Z" fill="#1E1E1E"/>
<path d="M2466.49 2103L2485.57 1996.62H2515.45L2534.17 2103H2510.77L2507.53 2083.38H2492.05L2488.99 2103H2466.49ZM2492.41 2072.94H2507.35L2499.97 2015.16L2492.41 2072.94Z" fill="#1E1E1E"/>
<path d="M2586.3 2103V1996.62H2625.18C2632.26 1996.62 2637.6 1998.24 2641.2 2001.48C2644.8 2004.6 2646.6 2008.98 2646.6 2014.62V2031.18C2646.6 2036.82 2645.1 2041.56 2642.1 2045.4C2639.1 2049.24 2634.42 2051.46 2628.06 2052.06C2632.14 2052.66 2635.02 2054.04 2636.7 2056.2C2638.5 2058.24 2640.06 2061.6 2641.38 2066.28L2651.46 2103H2628.24L2620.5 2067.72C2619.78 2064.84 2618.94 2062.44 2617.98 2060.52C2617.14 2058.48 2615.88 2057.46 2614.2 2057.46H2608.08V2103H2586.3ZM2608.08 2042.88H2616.72C2620.08 2042.88 2622.48 2041.98 2623.92 2040.18C2625.36 2038.26 2626.08 2035.26 2626.08 2031.18V2018.4C2626.08 2014.56 2625.42 2011.86 2624.1 2010.3C2622.78 2008.74 2620.74 2007.96 2617.98 2007.96H2608.08V2042.88Z" fill="#1E1E1E"/>
<path d="M2727.41 2104.98C2723.33 2104.98 2719.49 2104.32 2715.89 2103C2712.41 2101.68 2709.53 2099.1 2707.25 2095.26C2704.97 2091.3 2703.83 2085.42 2703.83 2077.62V2019.3C2703.83 2013.06 2705.03 2008.2 2707.43 2004.72C2709.95 2001.24 2713.43 1998.84 2717.87 1997.52C2722.31 1996.08 2727.47 1995.36 2733.35 1995.36C2739.23 1995.36 2744.39 1996.08 2748.83 1997.52C2753.39 1998.84 2756.93 2001.24 2759.45 2004.72C2762.09 2008.2 2763.41 2013.06 2763.41 2019.3V2034.24H2743.07V2018.22C2743.07 2015.34 2742.65 2013.18 2741.81 2011.74C2741.09 2010.18 2740.07 2009.16 2738.75 2008.68C2737.43 2008.2 2735.81 2007.96 2733.89 2007.96C2732.09 2007.96 2730.47 2008.2 2729.03 2008.68C2727.71 2009.16 2726.63 2010.18 2725.79 2011.74C2725.07 2013.18 2724.71 2015.34 2724.71 2018.22V2082.66C2724.71 2085.42 2725.07 2087.58 2725.79 2089.14C2726.63 2090.58 2727.71 2091.6 2729.03 2092.2C2730.47 2092.68 2732.09 2092.92 2733.89 2092.92C2736.65 2092.92 2738.87 2092.08 2740.55 2090.4C2742.23 2088.72 2743.07 2086.14 2743.07 2082.66V2061.42H2734.43V2049.54H2763.41V2103H2747.75L2746.67 2094.72C2746.43 2095.08 2746.19 2095.44 2745.95 2095.8C2745.71 2096.16 2745.53 2096.46 2745.41 2096.7C2744.21 2098.74 2742.17 2100.66 2739.29 2102.46C2736.53 2104.14 2732.57 2104.98 2727.41 2104.98Z" fill="#1E1E1E"/>
<path d="M2813.89 2103L2832.97 1996.62H2862.85L2881.57 2103H2858.17L2854.93 2083.38H2839.45L2836.39 2103H2813.89ZM2839.81 2072.94H2854.75L2847.37 2015.16L2839.81 2072.94Z" fill="#1E1E1E"/>
<path d="M2960.7 2104.26C2954.34 2104.26 2948.88 2103.36 2944.32 2101.56C2939.88 2099.76 2936.46 2096.58 2934.06 2092.02C2931.66 2087.46 2930.46 2081.04 2930.46 2072.76V2066.46C2934.18 2066.46 2937.84 2066.46 2941.44 2066.46C2945.04 2066.46 2948.64 2066.46 2952.24 2066.46V2074.56C2952.24 2079 2952.6 2082.42 2953.32 2084.82C2954.04 2087.1 2955.06 2088.72 2956.38 2089.68C2957.7 2090.52 2959.26 2090.94 2961.06 2090.94C2963.82 2090.94 2965.98 2089.98 2967.54 2088.06C2969.22 2086.02 2970.06 2082.12 2970.06 2076.36C2970.06 2071.92 2969.34 2068.62 2967.9 2066.46C2966.58 2064.18 2964.42 2062.38 2961.42 2061.06C2958.42 2059.62 2954.58 2057.88 2949.9 2055.84C2945.7 2054.04 2942.22 2051.88 2939.46 2049.36C2936.7 2046.84 2934.66 2043.66 2933.34 2039.82C2932.02 2035.98 2931.36 2031.3 2931.36 2025.78C2931.36 2018.82 2932.26 2013.18 2934.06 2008.86C2935.98 2004.54 2939.1 2001.42 2943.42 1999.5C2947.86 1997.46 2953.8 1996.44 2961.24 1996.44C2970.84 1996.44 2978.16 1998.54 2983.2 2002.74C2988.36 2006.82 2990.94 2013 2990.94 2021.28V2034.06C2987.46 2034.06 2983.98 2034.06 2980.5 2034.06C2977.14 2034.06 2973.66 2034.06 2970.06 2034.06V2027.58C2970.06 2022.18 2969.4 2018.4 2968.08 2016.24C2966.88 2014.08 2964.66 2013 2961.42 2013C2958.3 2013 2956.08 2013.96 2954.76 2015.88C2953.44 2017.8 2952.78 2020.92 2952.78 2025.24C2952.78 2029.2 2953.56 2032.32 2955.12 2034.6C2956.8 2036.76 2958.9 2038.44 2961.42 2039.64C2963.94 2040.72 2966.64 2041.8 2969.52 2042.88C2974.8 2044.92 2979.12 2047.02 2982.48 2049.18C2985.84 2051.22 2988.3 2054.1 2989.86 2057.82C2991.42 2061.42 2992.2 2066.64 2992.2 2073.48C2992.2 2081.16 2990.88 2087.28 2988.24 2091.84C2985.72 2096.28 2982.06 2099.46 2977.26 2101.38C2972.58 2103.3 2967.06 2104.26 2960.7 2104.26Z" fill="#1E1E1E"/>
</svg>
